<?xml version="1.0" encoding="UTF-8" standalone="no"?>
<!-- Created with Inkscape (http://www.inkscape.org/) -->

<svg
   width="165.6261mm"
   height="5.8208303mm"
   viewBox="0 0 165.62609 5.8208303"
   version="1.1"
   id="svg1"
   xml:space="preserve"
   inkscape:version="1.3 (0e150ed, 2023-07-21)"
   sodipodi:docname="divider-deep.svg"
   xmlns:inkscape="http://www.inkscape.org/namespaces/inkscape"
   xmlns:sodipodi="http://sodipodi.sourceforge.net/DTD/sodipodi-0.dtd"
   xmlns="http://www.w3.org/2000/svg"
   xmlns:svg="http://www.w3.org/2000/svg"><sodipodi:namedview
     id="namedview1"
     pagecolor="#ffffff"
     bordercolor="#000000"
     borderopacity="0.25"
     inkscape:showpageshadow="2"
     inkscape:pageopacity="0.0"
     inkscape:pagecheckerboard="0"
     inkscape:deskcolor="#d1d1d1"
     inkscape:document-units="mm"
     showguides="true"
     inkscape:zoom="3.3450228"
     inkscape:cx="550.51942"
     inkscape:cy="0.74737906"
     inkscape:window-width="2560"
     inkscape:window-height="1412"
     inkscape:window-x="0"
     inkscape:window-y="28"
     inkscape:window-maximized="0"
     inkscape:current-layer="g20" /><defs
     id="defs1" /><g
     inkscape:label="Layer 1"
     inkscape:groupmode="layer"
     id="layer1"
     transform="translate(-18.707794,-145.58959)"><g
       id="g20"><g
         style="fill:#5bc2d9"
         id="g1"
         transform="matrix(0.00661458,0,0,0.00661458,175.27895,151.675)"><path
           d="m 240,-80 q -33,0 -56.5,-23.5 Q 160,-127 160,-160 v -480 q 0,-56 34,-98 34,-42 86,-56 v -86 h 120 v 80 h 160 v -80 h 120 v 86 q 52,14 86,56 34,42 34,98 v 480 q 0,33 -23.5,56.5 Q 753,-80 720,-80 Z m 0,-80 h 480 v -480 q 0,-33 -23.5,-56.5 Q 673,-720 640,-720 H 320 q -33,0 -56.5,23.5 Q 240,-673 240,-640 Z m 340,-160 h 80 V -480 H 300 v 80 H 580 Z M 480,-440 Z"
           id="path1" /></g><g
         style="fill:#5bc2d9"
         id="g2"
         transform="matrix(0.00661458,0,0,0.00661458,35.302939,151.54271)"><path
           d="m 180,-520 q -26,0 -43,-17 -17,-17 -17,-43 0,-26 17,-43 17,-17 43,-17 26,0 43,17 17,17 17,43 0,26 -17,43 -17,17 -43,17 z M 120,-80 V -280 H 80 v -160 q 0,-17 11.5,-28.5 Q 103,-480 120,-480 h 120 q 17,0 28.5,11.5 11.5,11.5 11.5,28.5 v 160 h -40 v 120 h 320 v -200 h -70 q -71,0 -120.5,-49.5 Q 320,-459 320,-530 q 0,-53 28.5,-94.5 Q 377,-666 422,-686 433,-751 482.5,-795.5 532,-840 600,-840 q 68,0 117.5,44.5 49.5,44.5 60.5,109.5 45,20 73.5,61.5 28.5,41.5 28.5,94.5 0,71 -49.5,120.5 Q 781,-360 710,-360 h -70 v 200 h 200 v 80 z m 370,-360 h 220 q 38,0 64,-26 26,-26 26,-64 0,-27 -14.5,-49 -14.5,-22 -39.5,-33 l -42,-18 -6,-44 q -6,-37 -33.5,-61.5 Q 637,-760 600,-760 q -37,0 -64.5,24.5 Q 508,-711 502,-674 l -6,44 -42,18 q -25,11 -39.5,33 -14.5,22 -14.5,49 0,38 26,64 26,26 64,26 z m 110,-160 z"
           id="path1-8" /></g><g
         style="fill:#5bc2d9"
         id="g3"
         transform="matrix(0.00661458,0,0,0.00661458,158.35969,151.60885)"><path
           d="m 280,-40 123,-622 q 6,-29 27,-43.5 21,-14.5 44,-14.5 23,0 42.5,10 19.5,10 31.5,30 l 40,64 q 18,29 46.5,52.5 28.5,23.5 65.5,34.5 v -71 h 60 v 560 h -60 v -406 q -48,-11 -89,-35 -41,-24 -71,-59 l -24,120 84,80 v 300 h -80 v -240 l -84,-80 -72,320 z m 17,-395 -85,-16 q -16,-3 -25,-16.5 -9,-13.5 -6,-30.5 l 30,-157 q 6,-32 34,-50.5 28,-18.5 60,-12.5 l 46,9 z m 243,-305 q -33,0 -56.5,-23.5 Q 460,-787 460,-820 q 0,-33 23.5,-56.5 23.5,-23.5 56.5,-23.5 33,0 56.5,23.5 23.5,23.5 23.5,56.5 0,33 -23.5,56.5 Q 573,-740 540,-740 Z"
           id="path1-5" /></g><g
         style="fill:#5bc2d9"
         id="g4"
         transform="matrix(0.00661458,0,0,0.00661458,44.093297,151.54271)"><path
           d="m 640,-560 v -126 z m -466,428 q -20,8 -37,-4.5 -17,-12.5 -17,-33.5 v -560 q 0,-13 7.5,-23 7.5,-10 20.5,-15 l 212,-72 240,84 186,-72 q 20,-8 37,4.5 17,12.5 17,33.5 v 337 q -15,-23 -35.5,-42 -20.5,-19 -44.5,-33 v -204 l -120,46 v 126 q -21,0 -41,3.5 -20,3.5 -39,10.5 v -140 l -160,-56 v 523 z m 26,-96 120,-46 v -468 l -120,40 z m 440,-12 q 34,0 56.5,-20 22.5,-20 23.5,-60 1,-34 -22.5,-57 -23.5,-23 -57.5,-23 -34,0 -57,23 -23,23 -23,57 0,34 23,57 23,23 57,23 z m 0,80 q -66,0 -113,-47 -47,-47 -47,-113 0,-66 47,-113 47,-47 113,-47 66,0 113,47 47,47 47,113 0,23 -5.5,43.5 Q 789,-256 778,-238 l 102,102 -56,56 -102,-102 q -18,11 -38.5,16.5 Q 663,-160 640,-160 Z M 320,-742 v 468 z"
           id="path1-3" /></g><g
         style="fill:#5bc2d9"
         id="g5"
         transform="matrix(0.00661458,0,0,0.00661458,52.883656,151.675)"><path
           d="M 440,-80 V -240 H 240 L 120,-360 240,-480 h 200 v -80 H 160 v -240 h 280 v -80 h 80 v 80 h 200 l 120,120 -120,120 H 520 v 80 h 280 v 240 H 520 V -80 Z M 240,-640 h 447 l 40,-40 -40,-40 H 240 Z m 33,320 h 447 v -80 H 273 l -40,40 z m -33,-320 v -80 z m 480,320 v -80 z"
           id="path1-2" /></g><g
         style="fill:#5bc2d9"
         id="g6"
         transform="matrix(0.00661458,0,0,0.00661458,61.674015,151.675)"><path
           d="m 120,-420 320,-460 v 460 z m 153,-80 h 87 v -125 z m 227,80 q 12,-28 26,-98 14,-70 14,-142 0,-72 -13.5,-148 -13.5,-76 -26.5,-112 61,18 121.5,67 60.5,49 109,117 48.5,68 79,149.5 Q 840,-505 840,-420 Z m 104,-80 h 148 q -17,-77 -55.5,-141 -38.5,-64 -81.5,-109 2,21 3.5,43.5 1.5,22.5 1.5,46.5 0,47 -4.5,87 -4.5,40 -11.5,73 z m -244,300 q -36,0 -67,-17 -31,-17 -53,-43 -14,15 -30.5,28 -16.5,13 -36.5,21 -35,-26 -59.5,-64.5 Q 89,-314 80,-360 h 800 q -9,46 -33.5,84.5 -24.5,38.5 -59.5,64.5 -20,-8 -36.5,-21 -16.5,-13 -30.5,-28 -23,26 -53.5,43 -30.5,17 -66.5,17 -36,0 -67,-17 -31,-17 -53,-43 -22,26 -53,43 -31,17 -67,17 z M 80,-40 v -80 h 40 q 32,0 62.5,-10 30.5,-10 57.5,-30 27,20 57.5,29.5 30.5,9.5 62.5,9.5 32,0 62,-9.5 30,-9.5 58,-29.5 27,20 57.5,29.5 30.5,9.5 62.5,9.5 32,0 62,-9.5 30,-9.5 58,-29.5 28,20 58,30 30,10 62,10 h 40 v 80 h -40 q -31,0 -61,-7.5 -30,-7.5 -59,-22.5 -29,15 -59,22.5 -30,7.5 -61,7.5 -31,0 -61,-7.5 -30,-7.5 -59,-22.5 -29,15 -59,22.5 -30,7.5 -61,7.5 -31,0 -61,-7.5 -30,-7.5 -59,-22.5 -29,15 -59,22.5 -30,7.5 -61,7.5 z m 280,-460 z m 244,0 z"
           id="path1-7" /></g><g
         style="fill:#5bc2d9"
         id="g7"
         transform="matrix(0.00661458,0,0,0.00661458,78.718951,151.675)"><path
           d="m 449,-539 q 21,0 35.5,-14.5 Q 499,-568 499,-589 499,-610 484.5,-624.5 470,-639 449,-639 q -21,0 -35.5,14.5 -14.5,14.5 -14.5,35.5 0,21 14.5,35.5 14.5,14.5 35.5,14.5 z m 373,459 q -42,0 -113,-35 -71,-35 -152,-95 -19,5 -38.5,7.5 -19.5,2.5 -39.5,2.5 -117,0 -198,-81 -81,-81 -81,-198 0,-20 3,-40 3,-20 8,-39 -59,-81 -94.5,-151.5 Q 81,-780 81,-822 q 0,-27 15,-42.5 15,-15.5 41,-15.5 26,0 67.5,18 41.5,18 114.5,61 -21,11 -39,23 -18,12 -35,26 -19,-11 -37,-19 -18,-8 -38,-17 18,38 38.5,74 20.5,36 43.5,71 38,-54 97,-85 59,-31 130,-31 117,0 198.5,81.5 81.5,81.5 81.5,198.5 0,71 -31.5,130 -31.5,59 -85.5,97 35,23 71.5,44 36.5,21 74.5,38 -8,-19 -16.5,-37 -8.5,-18 -19.5,-37 15,-17 27,-36 12,-19 22,-39 46,78 62.5,116.5 16.5,38.5 16.5,64.5 0,29 -16,43.5 Q 848,-80 822,-80 Z M 549,-359 q 17,0 28.5,-11.5 Q 589,-382 589,-399 589,-416 577.5,-427.5 566,-439 549,-439 q -17,0 -28.5,11.5 -11.5,11.5 -11.5,28.5 0,17 11.5,28.5 11.5,11.5 28.5,11.5 z m 50,-140 q 13,0 21.5,-8.5 8.5,-8.5 8.5,-21.5 0,-13 -8.5,-21.5 -8.5,-8.5 -21.5,-8.5 -13,0 -21.5,8.5 -8.5,8.5 -8.5,21.5 0,13 8.5,21.5 8.5,8.5 21.5,8.5 z m -131,218 q -51,-44 -98,-91 -47,-47 -90,-98 2,38 17,71.5 15,33.5 41,59.5 26,26 59,41 33,15 71,17 z m 103,-21 q 48,-25 78,-72.5 30,-47.5 30,-105.5 0,-83 -58.5,-141 -58.5,-58 -141.5,-58 -58,0 -105,30 -47,30 -72,78 57,76 125,144 68,68 144,125 z m -197,-73 z m 117,-116 z"
           id="path1-86" /></g><g
         style="fill:#5bc2d9"
         id="g8"
         transform="matrix(0.00661458,0,0,0.00661458,70.19979,151.675)"><path
           d="m 340,-220 h 280 v -60 H 340 Z m 140,-120 q 83,0 141.5,-58.5 Q 680,-457 680,-540 680,-623 621.5,-681.5 563,-740 480,-740 397,-740 338.5,-681.5 280,-623 280,-540 q 0,83 58.5,141.5 Q 397,-340 480,-340 Z m 0,-67 q -8,-11 -17,-36.5 -9,-25.5 -12,-66.5 h 58 q -3,41 -12,66.5 -9,25.5 -17,36.5 z m -72,-13 q -24,-15 -41,-38 -17,-23 -23,-52 h 47 q 2,25 6,47.5 4,22.5 11,42.5 z m 144,0 q 7,-20 11,-42.5 4,-22.5 6,-47.5 h 47 q -6,29 -23,52 -17,23 -41,38 z M 344,-570 q 6,-29 23,-52 17,-23 41,-38 -7,20 -11,42.5 -4,22.5 -6,47.5 z m 107,0 q 3,-41 12,-66.5 9,-25.5 17,-36.5 8,11 17,36.5 9,25.5 12,66.5 z m 118,0 q -2,-25 -6,-47.5 -4,-22.5 -11,-42.5 24,15 41,38 17,23 23,52 z M 160,-80 v -800 h 560 q 33,0 56.5,23.5 23.5,23.5 23.5,56.5 v 640 q 0,33 -23.5,56.5 Q 753,-80 720,-80 Z m 80,-80 H 720 V -800 H 240 Z m 0,0 v -640 z"
           id="path1-27" /></g><g
         style="fill:#5bc2d9"
         id="g9"
         transform="matrix(0.00661458,0,0,0.00661458,87.773893,151.675)"><path
           d="m 480,-390 z m -132,-53 55,37 77,-39 77,39 53,-35 -40,-79 H 386 Z m -139,283 h 541 l -104,-209 -83,55 -83,-41 -83,41 -85,-56 z M 80,-80 314,-555 q 10,-20 29.5,-32.5 Q 363,-600 386,-600 h 54 v -280 h 280 l -40,80 40,80 H 520 v 120 h 50 q 23,0 42,12 19,12 30,32 l 238,476 z"
           id="path1-9" /></g><g
         style="fill:#5bc2d9"
         id="g10"
         transform="matrix(0.00661458,0,0,0.00661458,96.299668,151.675)"><path
           d="m 480,-388 q 54,-50 84,-80 30,-30 47,-50 16,-20 22.5,-37 6.5,-17 6.5,-37 0,-36 -26,-62 -26,-26 -62,-26 -21,0 -40.5,8.5 -19.5,8.5 -31.5,23.5 -12,-15 -31,-23.5 -19,-8.5 -41,-8.5 -36,0 -62,26 -26,26 -26,62 0,21 6,37 6,16 22,36 17,20 46,50 29,30 86,81 z m 0,202 Q 602,-298 661,-389.5 720,-481 720,-552 720,-661 650.5,-730.5 581,-800 480,-800 379,-800 309.5,-730.5 240,-661 240,-552 q 0,71 59,162.5 59,91.5 181,203.5 z m 0,106 Q 319,-217 239.5,-334.5 160,-452 160,-552 q 0,-150 96.5,-239 96.5,-89 223.5,-89 127,0 223.5,89 96.5,89 96.5,239 0,100 -79.5,217.5 Q 641,-217 480,-80 Z m 0,-480 z"
           id="path1-23" /></g><g
         style="fill:#5bc2d9"
         id="g11"
         transform="matrix(0.00661458,0,0,0.00661458,105.35461,151.675)"><path
           d="M 280,-80 V -240 H 0 L 154,-480 H 80 l 280,-400 120,172 120,-172 280,400 h -74 l 154,240 H 680 V -80 H 520 V -240 H 440 V -80 Z M 669,-320 H 814 L 659,-560 h 67 l -126,-180 -71,101 111,159 h -74 z m -523,0 H 574 L 419,-560 h 67 L 360,-740 234,-560 h 67 z m 0,0 h 155 -67 252 -67 155 z m 523,0 H 566 640 529 726 659 814 Z m -149,80 h 160 z m 201,0 z"
           id="path1-81" /></g><g
         style="fill:#5bc2d9"
         id="g12"
         transform="matrix(0.00661458,0,0,0.00661458,114.93872,151.675)"><path
           d="m 300,-300 280,-80 80,-280 -280,80 z m 180,-120 q -25,0 -42.5,-17.5 Q 420,-455 420,-480 q 0,-25 17.5,-42.5 17.5,-17.5 42.5,-17.5 25,0 42.5,17.5 17.5,17.5 17.5,42.5 0,25 -17.5,42.5 Q 505,-420 480,-420 Z m 0,340 Q 397,-80 324,-111.5 251,-143 197,-197 143,-251 111.5,-324 80,-397 80,-480 q 0,-83 31.5,-156 31.5,-73 85.5,-127 54,-54 127,-85.5 73,-31.5 156,-31.5 83,0 156,31.5 73,31.5 127,85.5 54,54 85.5,127 31.5,73 31.5,156 0,83 -31.5,156 -31.5,73 -85.5,127 -54,54 -127,85.5 Q 563,-80 480,-80 Z m 0,-80 q 133,0 226.5,-93.5 Q 800,-347 800,-480 800,-613 706.5,-706.5 613,-800 480,-800 347,-800 253.5,-706.5 160,-613 160,-480 q 0,133 93.5,226.5 Q 347,-160 480,-160 Z m 0,-320 z"
           id="path1-38" /></g><g
         style="fill:#5bc2d9"
         id="g13"
         transform="matrix(0.00661458,0,0,0.00661458,123.46449,151.675)"><path
           d="M 480,-80 Q 315,-220 237.5,-339 160,-458 160,-570 160,-707 256.5,-793.5 353,-880 480,-880 q 127,0 223.5,89 96.5,89 96.5,239 l 84,-84 56,56 -180,180 -180,-180 56,-56 84,84 Q 720,-661 650.5,-730.5 581,-800 480,-800 q -101,0 -170.5,67 -69.5,67 -69.5,164 0,83 59,177 59,94 181,206 20,-18 37,-35 l 34,-34 q -5,-11 -8,-22 -3,-11 -3,-23 0,-42 29,-71 29,-29 71,-29 42,0 71,29 29,29 29,71 0,42 -29,71 -29,29 -71,29 -8,0 -14.5,-1 -6.5,-1 -13.5,-3 -29,30 -61.5,61 -32.5,31 -70.5,63 z"
           id="path1-4" /></g><g
         style="fill:#5bc2d9"
         id="g14"
         transform="matrix(0.00661458,0,0,0.00661458,150.23244,151.675)"><path
           d="m 440,-80 v -200 q 0,-56 -17,-83 -17,-27 -45,-53 l 57,-57 q 12,11 23,23.5 11,12.5 22,26.5 14,-19 28.5,-33.5 14.5,-14.5 29.5,-28.5 38,-35 69,-81 31,-46 33,-161 l -63,63 -57,-56 160,-160 160,160 -56,56 -64,-63 q -2,143 -44,203.5 -42,60.5 -84,98.5 -32,29 -52,56.5 -20,27.5 -20,88.5 V -80 Z M 248,-633 q -4,-20 -5.5,-44 -1.5,-24 -2.5,-50 l -64,63 -56,-56 160,-160 160,160 -57,56 -63,-62 q 0,21 2,39.5 2,18.5 4,34.5 z m 86,176 q -20,-21 -38.5,-49 -18.5,-28 -32.5,-69 l 77,-19 q 10,27 23,46 13,19 28,34 z"
           id="path1-26" /></g><g
         style="fill:#5bc2d9"
         id="g15"
         transform="matrix(0.00661458,0,0,0.00661458,141.44209,151.675)"><path
           d="m 80,-80 v -186 l 350,-472 -70,-94 64,-48 56,75 56,-75 64,48 -70,94 350,472 v 186 z m 400,-591 -320,431 v 80 h 120 l 200,-280 200,280 h 120 v -80 z M 378,-160 H 582 L 480,-302 Z m 102,-280 200,280 -200,-280 -200,280 z"
           id="path1-37" /></g><g
         style="fill:#5bc2d9"
         id="g16"
         transform="matrix(0.00661458,0,0,0.00661458,26.51258,151.67831)"><path
           d="m 784,-120 -254,-254 56,-56 254,254 z m -546,-28 q -60,-60 -89,-135 -29,-75 -29,-153 0,-78 29,-152 29,-74 89,-134 60,-60 134.5,-89.5 Q 447,-841 525,-841 q 78,0 152.5,29.5 Q 752,-782 812,-722 Z m 8,-122 54,-54 q -16,-21 -30.5,-43 -14.5,-22 -26.5,-44 -12,-22 -21,-44 -9,-22 -16,-43 -11,59 -1.5,118 9.5,59 41.5,110 z m 112,-110 222,-224 q -43,-33 -86.5,-53.5 -43.5,-20.5 -81.5,-28 -38,-7.5 -68.5,-2.5 -30.5,5 -47.5,22 -17,18 -22,48.5 -5,30.5 2.5,69 7.5,38.5 28,81.5 20.5,43 53.5,87 z m 278,-280 56,-54 q -53,-32 -112,-42 -59,-10 -118,2 22,7 44,16 22,9 44,20.5 22,11.5 43.5,26 21.5,14.5 42.5,31.5 z"
           id="path1-815" /></g><g
         style="fill:#5bc2d9"
         id="g17"
         transform="matrix(0.00661458,0,0,0.00661458,132.65173,151.675)"><path
           d="m 480,-80 q -61,0 -125,-22 -64,-22 -116,-60 -52,-38 -85.5,-89 Q 120,-302 120,-360 v -120 l 160,120 -62,62 q 29,51 92,88 63,37 130,47 V -520 H 320 v -80 h 120 v -47 Q 405,-660 382.5,-690.5 360,-721 360,-760 q 0,-50 35,-85 35,-35 85,-35 50,0 85,35 35,35 35,85 0,39 -22.5,69.5 Q 555,-660 520,-647 v 47 h 120 v 80 H 520 v 357 q 67,-10 130,-47 63,-37 92,-88 l -62,-62 160,-120 v 120 q 0,58 -33.5,109 -33.5,51 -85.5,89 -52,38 -116,60 -64,22 -125,22 z m 0,-640 q 17,0 28.5,-11.5 Q 520,-743 520,-760 520,-777 508.5,-788.5 497,-800 480,-800 q -17,0 -28.5,11.5 -11.5,11.5 -11.5,28.5 0,17 11.5,28.5 11.5,11.5 28.5,11.5 z"
           id="path1-36" /></g><g
         style="fill:#5bc2d9"
         id="g18"
         transform="matrix(0.00661458,0,0,0.00661458,166.62088,151.675)"><path
           d="M 480,-80 Q 397,-80 324,-111.5 251,-143 197,-197 143,-251 111.5,-324 80,-397 80,-480 q 0,-83 31.5,-156 31.5,-73 85.5,-127 54,-54 127,-85.5 73,-31.5 156,-31.5 146,0 255.5,91.5 Q 845,-697 872,-559 H 790 Q 771,-632 721.5,-689.5 672,-747 600,-776 v 16 q 0,33 -23.5,56.5 Q 553,-680 520,-680 h -80 v 80 q 0,17 -11.5,28.5 Q 417,-560 400,-560 h -80 v 80 h 80 v 120 H 360 L 168,-552 q -3,18 -5.5,36 -2.5,18 -2.5,36 0,131 92,225 92,94 228,95 z m 364,-20 -128,-128 q -21,12 -45,20 -24,8 -51,8 -75,0 -127.5,-52.5 Q 440,-305 440,-380 440,-455 492.5,-507.5 545,-560 620,-560 q 75,0 127.5,52.5 52.5,52.5 52.5,127.5 0,27 -8,51 -8,24 -20,45 l 128,128 z M 620,-280 q 42,0 71,-29 29,-29 29,-71 0,-42 -29,-71 -29,-29 -71,-29 -42,0 -71,29 -29,29 -29,71 0,42 29,71 29,29 71,29 z"
           id="path1-49" /></g><g
         style="fill:#5bc2d9"
         id="g19"
         transform="matrix(0.00661458,0,0,0.00661458,17.953732,151.675)"><path
           d="m 397,-115 -99,-184 -184,-99 71,-70 145,25 102,-102 -317,-135 84,-86 385,68 124,-124 q 23,-23 57,-23 34,0 57,23 23,23 23,56.5 0,33.5 -23,56.5 l -125,125 68,384 -85,85 -136,-317 -102,102 26,144 z"
           id="path1-54" /></g><g
         style="fill:#5bc2d9;fill-opacity:0;stroke-width:1.06062"
         id="g21"
         transform="matrix(0.00588013,0,0,0.00661458,179.62979,151.675)"><path
           d="m 240,-80 q -33,0 -56.5,-23.5 Q 160,-127 160,-160 v -480 q 0,-56 34,-98 34,-42 86,-56 v -86 h 120 v 80 h 160 v -80 h 120 v 86 q 52,14 86,56 34,42 34,98 v 480 q 0,33 -23.5,56.5 Q 753,-80 720,-80 Z m 0,-80 h 480 v -480 q 0,-33 -23.5,-56.5 Q 673,-720 640,-720 H 320 q -33,0 -56.5,23.5 Q 240,-673 240,-640 Z m 340,-160 h 80 V -480 H 300 v 80 H 580 Z M 480,-440 Z"
           id="path2"
           style="fill:#5bc2d9;fill-opacity:0;stroke-width:1.06062" /></g></g></g></svg>
