<?xml version="1.0" encoding="UTF-8"?>
<svg xmlns="http://www.w3.org/2000/svg" viewBox="0 0 850.28 413.55">
  <defs>
    <style>
      .cls-1 {
        fill: #000;
      }

      .cls-1, .cls-2, .cls-3, .cls-4, .cls-5 {
        stroke-width: 0px;
      }

      .cls-2 {
        fill: #2dd6e2;
      }

      .cls-6 {
        isolation: isolate;
      }

      .cls-3 {
        fill: #aad16a;
      }

      .cls-4 {
        fill: #fff;
      }

      .cls-5 {
        fill: #343433;
        mix-blend-mode: multiply;
        opacity: .21;
      }
    </style>
  </defs>
  <g class="cls-6">
    <g id="Layer_1" data-name="Layer 1">
      <g>
        <path class="cls-1" d="M25.97,42.76v10.02c0,6.25,2.71,8.66,6.78,8.66,1.45,0,3.96-.32,4.69-1.04v6.54c0,5.71-4.58,10.45-10.28,10.45h-.15c-10.84,0-20.32-6.47-20.32-20.64v-13.98H0v-15.94h6.68v-4.18c0-3.34-.1-6.99-.32-9.49h19.92c-.21,2.5-.32,6.05-.32,9.49v4.17h12.93v3.03c0,7.13-5.79,12.92-12.92,12.92Z"/>
        <path class="cls-1" d="M93.05,49.02v17.18c0,5.71-4.64,10.34-10.35,10.34h-9.46c.32-3.24.41-7.92.41-10.43v-17.62c0-4.59-2.19-7.2-5.74-7.2-3.96,0-5.94,2.72-5.94,7.61v17.3c0,5.7-4.6,10.34-10.31,10.34h-9.51c.31-3.24.41-7.92.41-10.43V10.85h-5.42c1.04-2.19,3.23-8.54,3.76-10.85h21.58c-.41,3.23-.53,6.78-.53,10.33v20.86c3.76-3.96,7.92-5.32,13.14-5.32,12.32,0,17.95,9.39,17.95,23.15Z"/>
        <path class="cls-1" d="M145.01,55.69h-30.55c.99,5.54,7.07,7.06,12.73,6.99,8.7-.11,15.32-3.73,15.32-3.73,2.72,10.64-6.74,18.43-18.76,18.43-15.64,0-27.53-11.16-27.53-25.55s10.64-25.97,24.61-25.97,24.39,11.58,24.39,25.97c0,1.25-.1,3.02-.21,3.85ZM126.14,45.88c-.32-2.61-2.09-6.26-5.95-6.26-3.03,0-5.53,2.7-6.36,6.26h12.3Z"/>
      </g>
      <g>
        <path class="cls-1" d="M440.07,328.37h23.98c-.23,2.81-.35,54.4-.35,54.4,0,21.86-11.52,30.78-22.92,30.78h-.24c-7.47,0-13.51-6.06-13.51-13.53v-6.33c1.17.94,3.76,1.52,6.22,1.52,5.05,0,8.58-3.64,8.58-13.51v-41.01h-6.11c1.53-3.64,3.41-8.92,4.34-12.32ZM441.17,310.13c.39-5.01,4.1-9.32,8.99-10.47,7.56-1.78,14.13,4.07,14.13,11.44,0,6.57-5.05,11.87-11.4,11.87-6.77,0-12.26-5.83-11.71-12.84Z"/>
        <path class="cls-1" d="M529.75,356.32c0,15.98-13.63,28.9-30.32,28.9s-30.19-12.93-30.19-28.9,13.52-29.14,30.19-29.14,30.32,13.04,30.32,29.14ZM508.15,353.83c-1.82-6.67-7.19-11.01-11.97-9.71-4.79,1.32-7.18,7.78-5.35,14.45,1.83,6.67,7.19,11.01,11.97,9.71s7.19-7.77,5.35-14.45Z"/>
        <path class="cls-1" d="M592.87,371.9c0,6.89-5.5,12.51-12.39,12.51h-7s.04-3.87.04-6.47c-4.59,6.12-11.09,7.52-17.78,7.52-11.87,0-19.86-8.23-19.86-23.85v-20.92h-6.11c1.42-3.04,3.29-8.69,4.23-12.32h24.33c-.35,3.41-.59,8.58-.59,11.74v18.69c0,7.99,4.46,9.4,6.82,9.4,2,0,6.47-.93,6.47-9.4v-18.7c0-3.17-.12-8.33-.46-11.74h22.79c-.37,3.41-.48,8.58-.47,11.74v31.8Z"/>
        <path class="cls-1" d="M642.37,327.65v22.8c-1.88-1.3-4.7-2.69-8.11-2.69-6.82,0-9.16,7.75-9.16,12.58v12.44c0,6.42-5.13,11.64-11.54,11.64h-10.79c.23-3.87.36-7.87.36-11.75v-32.09h-6.11c1.53-3.41,3.53-8.69,4.34-12.22h21.39v12.1c2.11-7.76,7.76-13.27,15.4-13.27,3.16,0,2.92.47,4.22.47Z"/>
        <path class="cls-1" d="M708.32,353.85v18.9c0,6.44-5.18,11.67-11.61,11.67h-10.62s-.1-.05-.09-.11c.34-3.3.46-8.51.46-11.65v-18.8c0-5.51-2.11-9.28-6.47-9.28-4.59,0-6.58,3.52-6.58,9.16v18.92c0,6.5-5.26,11.75-11.75,11.75h-10.36c-.06,0-.1-.05-.1-.1.22-3.3.35-8.51.35-11.65v-31.85s-.04-.1-.1-.1h-5.87c-.07,0-.12-.08-.09-.15,1.83-4.26,3.23-8.2,4.27-12.13,0-.05.05-.07.09-.07h23.45c.06,0,.1.04.1.1v5.4c0,.1.11.13.16.06,3.42-4.33,8.98-6.61,14.76-6.61,13.89,0,19.99,9.64,19.99,26.55Z"/>
        <path class="cls-1" d="M768.32,360.91h-34.43c1.11,6.24,7.97,7.96,14.34,7.87,9.8-.13,17.26-4.2,17.26-4.2,3.06,12-7.59,20.77-21.14,20.77-17.63,0-31.02-12.58-31.02-28.79s11.99-29.26,27.73-29.26,27.49,13.05,27.49,29.26c0,1.41-.12,3.4-.23,4.34ZM747.06,349.85c-.36-2.94-2.36-7.05-6.7-7.05-3.41,0-6.23,3.04-7.17,7.05h13.87Z"/>
        <path class="cls-1" d="M833.09,328.37c-1.88,3.28-4.94,10.22-5.76,12.32-4,9.64-11.87,28.55-16.92,38.43-4.11,8.11-7.76,14.22-11.87,20.69-6.22,10.22-13.63,13.62-24.68,13.62-2.23,0-4.7-.47-6.58-1.06,2.59-2.82,5.53-6.11,8.35-10.22,5.05-7.16,9.75-14.1,13.87-22.09l-19.15-40.07c-1.53-3.04-3.88-7.51-6.11-11.63h25.38c.59,2.82,1.17,4.59,2.46,7.63l8.58,19.87c2.11-5.53,3.53-9.64,6.47-19.39,1.06-2.82,1.42-5.53,1.88-8.11h24.08Z"/>
      </g>
      <g>
        <path class="cls-1" d="M59.18,285.1H1.2c.84-8.75,1.42-31.42,1.42-50.63v-92.5c0-19.23-.56-42.15-1.42-50.63h74.39c46.96,0,73.27,27.15,73.27,65.61s-25.46,64.23-73.27,64.23h-17.81v13.28c-.02,19.21.56,41.87,1.4,50.63ZM57.75,179.6h11.04c16.69,0,24.88-12.16,24.88-23.2s-8.19-23.48-24.88-23.48h-11.04v46.68Z"/>
        <path class="cls-1" d="M283.82,247.09v8.38c0,17.9-14.63,32.58-32.54,32.63-15.27,0-22.9-5.65-28.57-13.86-8.22,9.08-18.39,13.89-32.26,13.89-25.74,0-42.99-16.69-42.99-41.85s16.69-43.58,44.98-43.58c11.04,0,21.22,2.82,25.19,5.37v-5.37c0-11.88-9.06-18.09-24.04-18.09s-26.58,5.65-34.52,13.28v-41.01c11.88-5.93,21.78-9.9,49.79-9.9,41.57,0,59.96,24.6,59.96,61.67v29.43c0,7.91,3.41,10.43,7.35,10.43,2.55,0,5.65-.28,7.66-1.42ZM208.01,234.67c-5.95,0-10.76,4.53-10.76,9.9,0,6.11,5.09,10.71,11.25,10.46,3.59-.16,6.93-2.29,8.78-5.37,4.32-7.26-1.52-15.01-9.27-14.99Z"/>
        <path class="cls-1" d="M422.12,311.88c0,27.17-35.08,47.24-75.53,47.24s-71.28-20.66-71.28-44.7c0-13,5.09-23.48,16.13-29.97-6.23-3.41-11.88-10.76-11.88-20.35,0-14.45,10.74-26.03,24.04-27.17-9.9-7.63-18.95-19.82-18.95-36.48,0-28.85,26.31-53.45,64.49-53.45,11.88,0,24.6,3.1,32.82,7.07.56-1.14.84-3.1.84-4.25h41.87c0,11.3-6.79,23.76-16.41,28.57,3.41,5.09,5.37,13.58,5.37,21.5,0,27.99-27.73,52.05-64.49,52.05-5.65,0-12.44-.56-15.26-.56-4.25,0-5.93,2.52-5.93,5.65,0,3.67,3.66,5.37,9.06,5.37,2.55,0,6.51-.3,9.9-.3,41.01,0,75.23,16.13,75.23,49.78ZM372.61,314.17c0-8.22-10.13-13.86-26.54-13.86-15.52,0-24.37,5.65-24.37,13s11.88,13.58,26.31,13.58c13.28-.02,24.6-5.67,24.6-12.72ZM332.75,200.43c0,7.91,7.35,14.42,16.41,14.42,8.5,0,15.57-6.51,15.57-14.42s-7.07-15.01-15.57-15.01c-9.06.02-16.41,6.82-16.41,15.01Z"/>
        <path class="cls-1" d="M576.82,254.63c.02,16.6-13.23,30.11-29.83,30.11h-16.85s.09-9.31.09-15.57c-11.04,14.73-26.7,18.11-42.81,18.11-28.57,0-47.8-19.82-47.8-57.42v-50.37h-14.7c3.41-7.33,7.91-20.91,10.18-29.67h58.56c-.84,8.22-1.42,20.66-1.42,28.27v45c0,19.23,10.74,22.62,16.41,22.62,4.81,0,15.57-2.24,15.57-22.62v-45.02c0-7.63-.28-20.05-1.12-28.27h54.87c-.89,8.22-1.17,20.66-1.14,28.27v76.56Z"/>
        <path class="cls-1" d="M695.98,148.1v54.9c-4.53-3.13-11.32-6.49-19.51-6.49-16.41,0-22.06,18.65-22.06,30.27v29.95c0,15.45-12.35,28.01-27.78,28.01h-25.98c.56-9.31.86-18.95.86-28.29v-77.23h-14.71c3.69-8.22,8.5-20.91,10.46-29.41h51.49v29.13c5.09-18.67,18.67-31.95,37.07-31.95,7.61,0,7.03,1.12,10.15,1.12Z"/>
        <path class="cls-1" d="M850.28,217.12c0,38.46-32.82,69.58-72.99,69.58s-72.68-31.11-72.68-69.58,32.54-70.14,72.68-70.14,72.99,31.39,72.99,70.14ZM798.28,211.12c-4.39-16.06-17.3-26.52-28.8-23.36-11.53,3.17-17.3,18.72-12.89,34.78,4.41,16.06,17.3,26.52,28.8,23.36,11.51-3.15,17.3-18.7,12.88-34.78Z"/>
      </g>
      <path class="cls-3" d="M750.89,203.61c.1-.29.03-.55-.17-.78-.24-.3-.38-.64-.5-1.02-.04-.11-.06-.23-.09-.34-.11.6-.21,1.2-.31,1.8.14.16.28.32.42.48.22.26.54.18.65-.14Z"/>
      <circle class="cls-4" cx="776.65" cy="217.62" r="37.38"/>
      <path class="cls-1" d="M768.89,148.5c4.41.84,8.68,2.38,13.21,3.68,2.87-6.92,4.18-14.36,5.04-21.89.06-.51-.57-1.16-1-1.64-4.54-5.09-4.03-13,1.15-17.45,2.3-1.97,4.91-3.14,7.9-2.07,3.18,1.13,4.8,3.78,5.34,6.95.84,4.91-.4,9.16-4.46,12.44-.77.62-1.29,1.86-1.45,2.88-1.25,7.88-2.31,15.79-3.63,23.66-.26,1.52-.09,2.29,1.18,3.14,2.78,1.86,5.44,3.91,8.67,6.26,2.29-2.41,4.9-4.81,7.09-7.55,6.57-8.23,10.9-17.56,12.87-27.92.2-1.05-.14-2.44-.72-3.37-2.52-4.09-2.09-9.66,1.2-13.17,2.77-2.95,7.33-3.93,10.23-2.2,3.44,2.05,5.39,7.02,3.74,11.22-.92,2.36-2.95,4.29-4.48,6.4-.91,1.26-2.34,2.38-2.69,3.77-3.64,14.68-10.3,27.65-21.03,38.46-.87.87-.69,2.78-1.06,4.51"/>
      <circle class="cls-4" cx="791.33" cy="118.78" r="3.66"/>
      <circle class="cls-4" cx="827.98" cy="118.78" r="3.66"/>
      <g>
        <g>
          <circle class="cls-2" cx="776.88" cy="217.94" r="51.78"/>
          <g>
            <path class="cls-4" d="M811.93,180.78c-.33-.26-.71-.23-1.05.05-.12.1-.24.19-.36.29-.07.06-.17.12-.25.08-.4-.18-.86-.14-1.25-.33-.73-.35-1.53-.47-2.31-.66-.37-.09-.73-.22-1.09-.37-.38-.16-.73-.4-1.15-.45-.6-.07-1.2-.14-1.64-.11-.5,0-.84,0-1.18,0-.14,0-.3-.02-.4.08-.35.37-.82.3-1.25.38-.12.02-.25,0-.35.08-.62.5-1.28.95-1.79,1.58-.06.07-.13.13-.2.19-.39.33-.78.66-1.07,1.09-.11.17-.26.3-.43.42-.34.24-.69.47-1.09.6-.34.11-.57.41-.91.54-.76.28-.73.26-.68,1.18.01.21.1.42.16.63.04.13.08.27.11.4.08.39.32.63.71.65.32.02.61-.05.87-.25.11-.08.21-.18.33-.26.15-.11.28-.12.46,0,.42.31.69.75,1,1.14.14.18.08.35-.11.47-.13.08-.26.16-.38.26-.1.08-.09.19-.06.3.03.12.13.19.24.17.42-.08.87-.08,1.24-.33.19-.12.37-.23.59-.22.23.01.33-.13.39-.32.09-.3.19-.59.18-.9,0-.23.07-.39.31-.45.1-.03.2-.09.29-.15.48-.34.5-.67.08-1.07-.06-.05-.12-.1-.17-.15-.47-.39-.42-.93.12-1.22.14-.07.27-.15.41-.22.38-.22.72-.46.9-.89.11-.27.35-.44.65-.45.2-.01.4,0,.6.01.08,0,.16.02.2.1.06.12-.05.16-.11.22-.31.26-.57.55-.94.74-.36.18-.62.45-.55.92.1.67.35,1.21,1.06,1.4.03,0,.06.01.09.03.28.12.43.35.41.61-.03.34-.16.53-.5.58-.45.06-.65.31-.72.72-.02.11-.04.21-.06.32-.14.6-.48.91-1.02.85-.15-.02-.31.03-.46.04-.53.04-1,.31-1.51.44-.14.04-.26.1-.37-.05-.3-.4-.66-.4-1.06-.17-.15.08-.29.12-.48.03-.41-.2-.52-.37-.38-.81.1-.29.08-.58.05-.87-.02-.17-.11-.29-.31-.28-.3.02-.68.35-.78.65-.13.36-.14.72-.09,1.09.03.25-.06.41-.29.51-.23.1-.44.22-.68.3-.36.13-.68.35-.88.66-.27.42-.69.6-1.08.84-.19.12-.37.21-.45.43-.13.36-.53.34-.78.53-.14.11-.29,0-.44-.05-.21-.07-.46-.1-.59.12-.19.35-.48.4-.82.4-.22,0-.43.02-.64.1-.09.03-.17.08-.18.19,0,.17.26.52.44.53.62.04.94.49,1.25.93.2.28.26.59.13.92-.06.16-.09.32-.12.49-.06.41-.14.47-.54.46-.11,0-.22,0-.32-.01-.82-.13-1.65-.11-2.48-.17-.09,0-.19,0-.27.06-.3.22-.74.33-.55.89.07.21-.11.45-.04.68.08.27,0,.51-.08.77-.07.22-.21.41-.31.62-.05.11-.15.25-.05.34.26.25.21.57.21.87,0,.24.12.33.35.33.08,0,.16.01.23,0,.39-.06.72.05,1.02.31.24.21.57.31.86.17.24-.11.47-.16.71-.13.64.08,1.05-.33,1.44-.7.19-.18.27-.5.46-.72.04-.04.03-.16,0-.22-.11-.21,0-.35.11-.5.12-.16.25-.32.35-.49.12-.2.26-.31.5-.35.33-.05.56-.31.8-.53.17-.15.1-.38.11-.57.02-.36.26-.57.66-.54.23.02.45.1.68.14.15.03.32.13.45.04.3-.21.65-.33.96-.53.38-.24.42-.27.75,0,.12.1.22.22.28.37.11.26.3.46.51.65.45.4.93.76,1.49,1,.41.17.69.52.97.84.25.29.06.7-.32.81-.38.11-.76.08-1.15.08-.13,0-.26.02-.31.16-.05.15.07.23.18.29.33.19.7.33,1.03.53.21.13.41.01.41-.24,0-.31.14-.45.4-.53.33-.1.39-.4.53-.66.1-.19.04-.34-.05-.52-.1-.2.02-.32.24-.31.15,0,.24.13.37.18.16.07.27,0,.27-.18,0-.2-.13-.31-.26-.41-.33-.23-.67-.44-1-.67-.15-.11-.3-.19-.48-.24-.32-.1-.65-.26-.78-.59-.11-.26-.26-.45-.47-.61-.07-.05-.14-.13-.19-.2-.11-.18-.08-.49.05-.6.15-.13.35-.2.51-.06.29.25.65.41.86.76.14.25.4.4.67.46.19.04.34.13.47.27.09.11.21.19.33.25.52.27.74.72.75,1.29,0,.14-.03.29.07.4.35.41.5.96.91,1.33.13.12.21.3.21.45,0,.46.32.55.66.63.27.06.35.01.45-.25.21-.58.44-1.15.15-1.77-.01-.03-.01-.06-.02-.09-.03-.27.24-.7.45-.73.4-.06.8.23.84.6.02.18.02.37.01.56-.02.39.11.74.31,1.05.18.27.41.5.79.48.3-.01.58.12.84.24.22.1.41.15.59-.03.13-.12.26-.11.43-.07.22.06.44.12.65.23.3.15.62.17.92-.04.1-.07.22-.13.33-.15.31-.07.65.11.68.4.04.35.11.73-.03,1.06-.13.32-.23.63-.3.96-.06.27-.12.55-.24.79-.15.31-.16.61-.07.94.11.4.31.77.46,1.15.27.65.61,1.24,1.04,1.79.19.24.36.51.45.8.06.17.16.3.3.4.29.2.46.49.63.79.17.3.2.65.27.98.09.44.26.82.69,1.04.12.06.23.16.31.27.41.59.79,1.22,1.03,1.89.26.73.65,1.39.91,2.12.09.26.31.45.58.58.25.11.41-.06.59-.16.04-.02.09-.03.13-.04.83-.31,1.68-.61,2.45-1.05.15-.09.32-.1.49-.14.34-.08.64-.22.81-.55.1-.2.28-.35.46-.44.52-.26,1.04-.5,1.52-.84.55-.38,1.12-.7,1.27-1.43.03-.15.13-.28.21-.41.23-.35.46-.69.57-1.1.04-.16.07-.3-.04-.44-.18-.22-.34-.44-.52-.65-.13-.16-.29-.29-.52-.25-.27.04-.43-.1-.56-.31-.06-.1-.15-.2-.22-.3-.38-.57-.79-.6-1.2-.06-.13.17-.27.31-.47.36-.37.09-.74.06-1.11.02-.13-.02-.23-.1-.19-.26.18-.75-.23-1.15-.82-1.47-.61-.32-1.04-.81-1.28-1.45-.14-.37.17-.71.56-.65.55.08.76.48.92.93.07.21.11.45.32.54.55.24.98.68,1.59.83.31.08.58.15.88.02.11-.05.23-.08.34-.14.23-.13.31-.09.43.14.04.07.07.14.09.21.08.28.27.43.56.48.4.06.78.17,1.18.24.82.15,1.65.22,2.48.03.17-.04.35-.06.53-.08-1.94-10.79-7.23-20.42-14.74-27.78-.06.01-.12.03-.18.04-.38.09-.69.05-.99-.2Z"/>
            <path class="cls-4" d="M819.99,217.57c-.37.23-.8.21-1.2.31-.65.17-1.28.44-1.95.55-.5.08-1.06-.22-1.07-.69-.01-.38-.21-.63-.44-.88-.23-.25-.48-.49-.67-.76-.16-.22-.32-.37-.59-.46-.56-.18-.88-.57-.92-1.19-.02-.37-.18-.72-.44-1-.44-.48-.73-1-.79-1.67-.04-.45-.21-.9-.53-1.26-.37-.42-.69-.86-.88-1.4-.07-.2-.19-.39-.26-.59-.19-.55-.69-.96-.62-1.64.04-.39-.2-.8-.27-1.21-.11-.63-.59-.92-1.07-1.19-.39-.22-.78-.1-1.12.16-.22.17-.43.2-.68.06-.18-.09-.38-.12-.58-.16-.6-.14-1.21-.21-1.78-.48-.26-.12-.54-.18-.78-.37-.24-.2-.58-.21-.89-.14-.12.03-.23.08-.36.09-.3.02-.44.27-.61.46-.15.17-.06.34,0,.52.09.29-.05.48-.36.5-.18.01-.33-.06-.46-.18-.29-.25-.63-.39-1.02-.39-.29,0-.51-.12-.59-.42-.11-.41-.44-.53-.81-.58-.17-.02-.34-.02-.51,0-.41.05-.76-.12-1.09-.32-.35-.21-.43-.57-.23-.94.07-.14.12-.28.11-.44-.02-.25-.02-.49.02-.74.05-.26-.11-.48-.35-.52-.24-.04-.51-.08-.73.03-.2.1-.38.08-.58.08-.44.01-.9-.12-1.31.17-.1.07-.21.04-.31,0-.27-.13-.54-.09-.82-.04-.51.09-1.01.26-1.55.23-.27-.02-.51.13-.68.34-.08.1-.17.16-.29.21-.55.23-1.13.29-1.71.36-.29.03-.57.03-.83-.19-.22-.18-.51-.07-.67.18-.1.16-.22.31-.28.48-.11.3-.32.46-.59.61-.65.36-1.14.89-1.34,1.61-.12.45-.32.84-.6,1.19-.32.39-.6.83-1.14.97-.18.05-.3.18-.39.37-.1.22-.21.51-.4.61-.39.2-.5.52-.59.88-.03.12-.09.23-.15.34-.29.52-.66.99-.92,1.54-.27.57-.37,1.07-.14,1.67.23.6.43,1.22.2,1.87-.04.1-.04.21-.06.32-.03.24-.14.43-.32.6-.27.26-.4.57-.39.96,0,.71.3,1.31.69,1.88.12.18.33.22.48.36.27.24.44.56.7.8.18.16.31.34.38.57.26.88.8,1.56,1.57,2.04.45.28.87.58,1.26.93.4.35.83.45,1.32.17.12-.07.26-.11.39-.15.5-.15.98-.3,1.53-.12.34.11.72.26,1.12.08.49-.22,1-.4,1.49-.63.48-.23.96-.31,1.47-.31.6,0,.95.25,1.15.82.18.53.32.61.89.52.42-.07.82-.03,1.21.18.48.27.56.45.47,1.01-.05.29-.21.56-.19.85.02.4-.06.77-.21,1.13-.06.14-.12.29-.05.45.11.24.17.49.35.7.33.39.63.8.95,1.19.27.33.48.67.53,1.1.03.27.15.53.3.77.17.26.27.56.26.88-.03.55.11,1.07.33,1.57.25.59.21,1.14-.28,1.61-.21.2-.32.44-.36.73-.07.46-.25.89-.36,1.34-.11.43-.11.88-.14,1.33,0,.15.08.3.17.43.21.29.33.62.48.95.19.44.32.91.66,1.27.31.32.37.69.34,1.11-.02.29-.06.59.04.88.1.3.14.6.15.91.03.49.12,1.01.45,1.34.59.56.89,1.23,1.04,1.99,0,.02,0,.03.02.04.16.28.2.58.16,1-.11.32.16.67.22,1.06,0,.06.04.13.09.15.31.15.61.39.99.33.59-.09,1.2-.07,1.77-.31.07-.03.15-.04.23-.04.6.02,1.15-.14,1.71-.32.57-.18,1.01-.5,1.38-.95.14-.17.27-.34.44-.47.29-.23.48-.51.65-.83.16-.32.36-.63.63-.85.32-.26.48-.59.61-.96.05-.16.12-.32.15-.49.08-.61.42-1,.95-1.27.21-.11.4-.26.48-.49.22-.61.39-1.24.14-1.89-.04-.12-.07-.24-.1-.36-.1-.55.08-1.01.53-1.34.2-.14.35-.31.48-.49.14-.19.31-.33.54-.42.54-.22,1.01-.54,1.38-.99.35-.43.57-.9.49-1.49-.05-.43-.04-.85.04-1.29.09-.48.09-.97-.24-1.42-.22-.29-.4-.65-.38-1.02.03-.62-.06-1.23-.2-1.83-.06-.25-.03-.5.13-.71.11-.14.17-.29.23-.45.25-.6.51-1.19,1.06-1.6.1-.07.17-.18.24-.28.28-.38.55-.79.85-1.15.28-.33.54-.7.94-.89.94-.45,1.54-1.24,2.01-2.11.52-.98.95-2.01,1.41-3.02.04-.1.04-.21.07-.31.14-.42-.03-.86.07-1.29.04-.17-.22-.38-.37-.29Z"/>
            <path class="cls-4" d="M726.91,208.32c-.03.24.07.41.27.55.38.26.64.63.84,1.03.12.25.25.5.4.73.23.33.23.69.07,1.06-.25.56-.05,1.1.51,1.37.05.03.13.05.16.09.24.37.61.55,1.02.67.07.02.13.08.18.14.21.24.48.39.77.51.59.24,1.17.48,1.76.71.27.1.54.11.82.02.15-.05.3-.07.44-.13.21-.08.4-.03.57.09.14.1.28.19.38.34.69,1.01,1.74,1.36,2.88,1.56.28.05.5.2.64.43.16.27.33.55.37.88.07.49.29.86.79,1.04.28.1.55.27.69.58.11.25.33.37.59.39.31.03.56.12.76.38.13.17.34.13.52.08.16-.04.19-.19.18-.34,0-.13.02-.24.09-.35.1-.14.12-.3.03-.43-.1-.14-.29-.11-.43-.07-.39.11-.69-.02-.98-.27-.09-.08-.18-.17-.28-.24-.4-.31-.49-.75-.34-1.17.21-.57.16-1.2.46-1.74.1-.17.04-.4.03-.6,0-.1-.07-.16-.15-.22-.46-.37-.98-.51-1.56-.4-.22.04-.43,0-.65,0-.18,0-.28-.09-.34-.26-.11-.33-.07-.64.13-.92.22-.31.36-.64.5-.99.16-.41.1-.88.45-1.24.15-.16,0-.37-.26-.42-.62-.13-1.19.04-1.75.25-.18.07-.27.19-.29.38-.03.33-.16.63-.29.92-.17.37-.36.49-.76.45-.33-.03-.64-.03-.97.02-.58.1-1.16-.31-1.44-.84-.32-.61-.28-1.25-.33-1.89,0-.09.02-.18.03-.27.06-.56.28-1.07.51-1.58.12-.26.21-.51.19-.8-.02-.31.09-.59.35-.77.3-.21.58-.46.93-.6.33-.13.65-.28.95-.48.27-.18.55-.2.88-.08.54.19,1.12.18,1.68.26.15.02.21-.08.29-.18.13-.19.29-.37.53-.42.29-.06.57-.14.86-.19.27-.05.54,0,.68.27.11.22.26.26.49.23.53-.07.81.22.74.75-.03.2-.02.4.03.6.11.49.27.94.56,1.36.21.3.35.34.61.1.28-.26.43-.59.45-.98.03-.49-.12-.95-.23-1.41-.22-.92.04-1.69.79-2.25.61-.46,1.25-.89,1.95-1.23.39-.19.78-.35,1.03-.78.15-.26.35-.51.42-.81.11-.45.34-.83.63-1.17.35-.41.71-.81,1.08-1.21.4-.44.85-.75,1.44-.82.28-.03.53-.17.78-.27.18-.07.28-.2.25-.4-.03-.26.12-.43.29-.6.27-.25.64-.32.91-.52.37-.27.73-.19,1.1-.21.19,0,.33.08.42.29.11.28.32.31.55.12.14-.12.26-.26.4-.39.1-.1.2-.21.35-.2.46.05.86-.24,1.31-.22.1,0,.21-.03.32-.07.24-.08.3-.33.12-.51-.08-.08-.18-.12-.29-.13-.17-.02-.33-.06-.5-.09-.48-.1-.68-.4-.56-.87.05-.21.15-.42.32-.56.25-.21.35-.47.27-.78-.05-.21.06-.29.21-.35.35-.15.73-.17,1.09-.12.45.07.88.08,1.32-.06.24-.08.41.15.31.39-.08.18-.21.34-.37.47-.2.17-.28.4-.37.63-.07.19-.04.29.17.33.29.05.58.1.87.03.31-.07.62-.08.9.11.27.18.58.21.88.28.43.09.73-.29.57-.71-.1-.26-.12-.5,0-.76.19-.39.19-.4-.21-.55-.33-.13-.4-.29-.38-.63.03-.47.29-.87.35-1.34.04-.28.02-.48-.21-.65-.1-.07-.2-.15-.19-.29.02-.26-.16-.36-.36-.41-.52-.13-.66-.51-.67-.98-.01-.28,0-.56,0-.84-.01-.48-.15-.91-.46-1.28-.24-.28-.31-.3-.61-.08-.37.28-.75.54-1.15.78-.26.16-.56.14-.77-.05-.2-.17-.22-.35-.08-.67.03-.07.07-.14.1-.21.12-.28.11-.41-.14-.54-.23-.12-.38-.3-.55-.48-.17-.17-.34-.37-.6-.41-.49-.06-.98-.11-1.48-.11-.18,0-.35.05-.47.17-.31.29-.43.71-.66,1.07.06.55-.25.82-.72.99-.04.02-.09.03-.13.05-.24.14-.26.26-.1.48.27.37.28.47.04.86-.17.27-.39.46-.66.63-.41.26-.89.35-1.32.57-.2.1-.35.21-.33.45.02.38-.24.69-.24,1.08,0,.15-.15.26-.29.34-.12.07-.25.13-.37.19-.31.15-.48.1-.62-.22-.11-.25-.13-.5.03-.75.19-.3.3-.65.54-.92.11-.13.06-.24-.08-.29-.25-.09-.5-.14-.77-.14-.56,0-1.04-.28-1.41-.62-.35-.33-.71-.53-1.15-.64-.26-.06-.36-.2-.4-.44-.03-.18-.02-.38-.14-.53-.18-.24-.07-.43.09-.62.19-.23.45-.38.68-.55.63-.49,1.32-.87,2.12-.97.41-.05.72-.27,1-.53.2-.18.41-.26.67-.28.42-.03.8.06,1.11.35.16.14.3.13.46.05.23-.12.47-.24.7-.36.16-.09.31-.09.48.02.14.09.3.16.48.16.13,0,.24-.05.3-.18.05-.12,0-.22-.09-.29-.17-.13-.25-.31-.3-.51-.1-.37-.04-.49.34-.52.26-.02.47-.11.68-.26.34-.25.75-.42.94-.85.05-.11.17-.18.26-.26.12-.12.24-.24.32-.4.14-.28.39-.39.69-.34.23.04.46.03.69.02.33,0,.66.08.86.36.13.18.28.31.47.41.3.15.32.35.06.58-.19.18-.41.33-.65.45-.14.07-.3.13-.34.29-.08.29-.31.32-.54.35-.27.03-.52-.02-.77-.1-.4-.13-.83.09-.96.48-.06.17-.01.27.18.29.51.05,1.01.17,1.52.04.2-.05.34.03.44.18.08.11.15.24.19.37.08.3.3.45.57.56.3.11.61.23.91.34.28.11.51.09.77-.1.28-.21.54-.45.85-.64.4-.25.47-.63.25-1.05-.07-.14-.14-.27-.21-.42-.05-.1-.07-.22.05-.29.1-.06.2-.02.3.05.18.13.27.34.43.49.25.24.46.26.74.05.21-.16.41-.33.62-.49.29-.24.32-.37.19-.73-.07-.2-.17-.35-.37-.45-.44-.22-.74-.55-.68-1.09.03-.26-.1-.44-.29-.6-.31-.26-.66-.4-1.05-.47-.43-.08-.74-.33-.88-.74-.09-.26-.26-.36-.5-.42-.63-.15-1.27-.14-1.89-.07-.43.05-.86.08-1.29.08-.29,0-.59-.02-.88,0-.29.03-.59.03-.84.22-.3.22-.59.45-.88.68-.36.31-.39.44-.24.89.04.1.1.2.04.31-.12.22-.3.36-.54.38-.23.02-.47.02-.61-.23-.15-.27-.26-.56-.3-.87-.04-.28-.25-.46-.46-.4-.37.1-.76.19-1.07.42-.34.25-.7.5-.53,1.05.1.32,0,.37-.29.54-.22.14-.42.07-.62.02-.34-.07-.69-.12-1,0-.24.09-.47.12-.72.13-.28,0-.55.01-.83.06-.39.06-.76.04-1.07-.29-.2-.21-.51-.27-.77-.22-.48.09-.98.14-1.45.27-.75.21-1.49.32-2.16-.24-.14-.12-.3-.15-.46-.15-7.34,7-12.63,16.13-14.87,26.4.27.38.32.86.59,1.24.04.05.03.15.02.23Z"/>
            <path class="cls-4" d="M726.51,210.05c.07-.21.02-.39-.12-.56-.17-.22-.27-.46-.36-.73-.03-.08-.05-.16-.07-.25-.08.43-.15.86-.22,1.29.1.11.2.23.3.34.16.19.39.13.47-.1Z"/>
            <path class="cls-4" d="M768.51,229.02c-.44-.05-.78-.28-1.06-.61-.11-.13-.23-.25-.36-.36-.38-.29-.77-.58-1.3-.46-.7.12-1.29-.23-1.83-.54-.9-.53-1.88-.85-2.83-1.27-.42-.19-.65-.44-.76-.85-.04-.15-.03-.31-.14-.43-.27-.3-.38-.66-.46-1.05-.05-.27-.12-.57-.37-.73-.26-.16-.45-.37-.65-.59-.07-.08-.15-.16-.26-.19-.51-.12-.99-.35-1.53-.3-.73.07-1.23-.32-1.58-.91-.2-.35-.44-.63-.84-.75-.26-.08-.39-.29-.47-.53-.06-.18.06-.33.1-.49.04-.18.11-.38-.12-.49-.21-.09-.43-.21-.67-.13-.27.08-.55.08-.83.08-.21,0-.39.03-.56.17-.27.22-.58.24-.87.06-.24-.14-.49-.19-.75-.22-.29-.03-.54-.14-.76-.31-.32-.25-.7-.39-1.05-.57-.26-.13-.59-.14-.9-.18-.12-.02-.24,0-.34.11-.3.33-.7.46-1.14.56-.51.11-.98.34-1.12.95-.1.43-.68.73-1.13.64-.17-.03-.34-.03-.51-.02-.08,0-.16.04-.17.13-.01.19-.12.41.13.53.1.05.13.13.13.22,0,.18.09.33.18.47.3.45.35.95.29,1.47-.05.44-.09.88-.35,1.28-.15.23-.38.36-.55.55-.21.23-.31.55-.56.73-.47.34-.61.84-.73,1.35-.07.32-.1.7.08,1,.27.45.18.82-.15,1.17-.13.14-.22.31-.2.5.05.56.16,1.1.68,1.45.45.3.65.77.79,1.27.07.27.18.52.39.72.4.4.69.89.93,1.38.21.42.46.83.64,1.27.2.51.67.87,1.06,1.27.03.03.09.03.13.05.33.14.66.26.98.41.61.29,1.11.73,1.56,1.22.11.11.14.27.18.42.23.73.2,1.5.24,2.25.05,1.08.09,2.16.2,3.23.02.18.02.38-.02.55-.11.48-.06.95-.01,1.43.06.58.3,1.1.39,1.66.1.59.14,1.15.01,1.74-.1.46-.12.95-.17,1.42-.01.11-.01.22.04.32.31.58.42,1.22.53,1.86.08.45.22.88.54,1.25.53.61.75,1.37.82,2.17.02.23.08.45.21.65.15.22.22.47.26.74.07.47.15.95.45,1.34.06.07.07.17.12.25.37.62.61,1.32,1.15,1.83.35.34.71.63,1.27.42.41-.15.98.16,1.09.6.07.29.24.36.49.39.2.02.4,0,.6.07.35.15.73.13,1.1.13.19,0,.35-.03.39-.24.03-.2-.14-.3-.28-.38-.05-.03-.12-.03-.18-.03-.24,0-.46-.08-.66-.19-.41-.23-.87-.44-1.06-.92-.11-.27-.27-.46-.48-.65-.56-.5-.46-.68-.24-1.12.03-.05.07-.12.06-.17-.04-.34.19-.53.4-.74.37-.39.29-.79-.2-1.03-.43-.21-.58-.72-.33-1.12.16-.25.29-.51.18-.82-.06-.17.03-.31.13-.42.19-.2.28-.44.32-.7.04-.26.15-.5.3-.72.15-.21.27-.45.31-.71.05-.34.28-.54.58-.67.11-.05.24-.07.35-.12.54-.2,1.02-.46,1.04-1.14,0-.06.03-.12.05-.18.18-.49.36-.98.81-1.31.24-.17.44-.39.57-.66.19-.39.36-.79.52-1.19.15-.37.24-.77.6-1.02.37-.25.28-.75.58-1.03.07-.06.13-.13.2-.19.17-.14.24-.32.24-.53,0-.25,0-.49-.07-.73-.29-.97-.12-1.36.75-1.89.15-.09.3-.15.47-.2.15-.05.3-.09.43-.18.33-.24.7-.35,1.12-.37.36-.02.79,0,.94-.49.02-.05.09-.09.14-.12.18-.11.25-.27.23-.47-.03-.26.07-.47.21-.69.18-.27.36-.56.34-.9-.02-.33,0-.64.21-.92.08-.1.05-.24.06-.36,0-.15-.02-.32.03-.46.1-.33.05-.62-.04-.95-.15-.53-.18-1.08.2-1.55.52-.63.82-1.42,1.41-1.99.03-.03.06-.07.09-.11.5-.85.69-1.74.37-2.7-.13-.39-.35-.64-.77-.69Z"/>
            <path class="cls-4" d="M781.54,180.16c.7-.15.94-.53.77-1.24-.1-.43-.02-.57.39-.72.73-.27,1.32-.71,1.6-1.48.04-.12.06-.24.16-.33.21-.19.27-.44.25-.72-.02-.22.06-.42.26-.5.5-.19.95-.51,1.5-.6.42-.07.86-.12,1.24-.34.08-.05.16-.09.14-.21-.02-.09-.1-.11-.17-.13-.29-.09-.58-.07-.87-.06-.56.03-1.13,0-1.65-.16-.59-.19-1.19-.31-1.8-.42-.99-.18-1.99-.22-2.99-.03-.39.07-.77.13-1.19.09-.56-.06-1.14-.06-1.71.03-.97.16-1.95.31-2.94.32-.26,0-.52.11-.78.06-1-.19-1.95.23-2.94.17-.06,0-.12.02-.18.04-.32.13-.64.21-.98.24-.57.06-1.09.34-1.67.36-.14,0-.33.03-.4.19-.08.21-.27.24-.44.3-.5.17-1.03.15-1.55.21-.31.04-.61.1-.91.17-.21.05-.27.17-.27.37,0,.32.27.71.62.84.31.12.64.16.96.1.67-.14,1.32-.02,1.97.1.53.09.87.48.9,1.02.02.27-.03.53-.17.76-.16.27-.15.54,0,.79.15.24.24.5.42.72.25.29.17.45-.22.52-.82.14-1.25.64-1.25,1.48-.05.35.13.7.09,1.08-.04.39.04.77.2,1.12.1.22.23.44.34.66.16.31.22.35.59.26.34-.08.6.02.83.27.54.58.84.37,1.16.02.3-.32.67-.6.86-1.02.05-.11.14-.22.24-.28.34-.21.57-.5.76-.85.26-.47.63-.76,1.21-.78.33-.02.67-.06,1-.12.72-.13,1.39-.4,1.97-.87.23-.18.47-.38.77-.39.58-.01,1.12-.2,1.69-.27.42-.05.81-.2,1.19-.37.32-.15.64-.3.99-.37Z"/>
            <path class="cls-4" d="M819.67,234.94c-.05-.32-.2-.62-.33-.91-.1-.21-.26-.23-.39-.04-.22.33-.46.66-.63,1.02-.33.73-.79,1.28-1.63,1.43-.2.04-.45.08-.55.3-.16.35-.42.67-.35,1.08.04.23.01.47.08.69.17.57-.08,1.04-.38,1.47-.22.31-.34.61-.29.94-.02.46.09.87.18,1.27.11.48.68.91,1.09.83.28-.06.56-.18.83-.28.08-.03.17-.11.2-.18.14-.31.33-.6.41-.93.19-.74.49-1.43.75-2.14.22-.59.51-1.16.6-1.79.05-.36.16-.69.35-.99.24-.38.29-.77.17-1.19-.05-.19-.08-.39-.11-.59Z"/>
            <path class="cls-4" d="M788.22,188.77c.19.21.43.34.68.47.22.11.36.32.35.56,0,.24-.25.23-.42.26-.22.04-.36.16-.39.39-.01.11-.05.21-.06.32-.04.36-.19.68-.28,1.02-.08.32.09.47.41.38.04-.01.09-.03.13-.06.47-.33,1.01-.34,1.55-.36.3-.01.57-.12.84-.24.1-.04.2-.11.2-.23,0-.18.13-.27.24-.38.31-.32.29-.54-.13-.67-.28-.09-.41-.26-.46-.51-.05-.24-.14-.43-.35-.57-.06-.04-.12-.1-.15-.17-.22-.47-.51-.9-.46-1.47.04-.5-.4-.88-.98-.88-.3-.07-.56.08-.79.4-.2.28-.36.52-.29.91.06.32.14.58.35.82Z"/>
            <path class="cls-4" d="M784.19,181.91c-.23.03-.46.02-.69.06-.59.1-1.19.24-1.77.02-.46-.17-.8.01-1.13.3-.15.13-.16.26,0,.38.19.15.3.33.38.56.08.23.23.38.5.41.4.04.8.03,1.18.19.03.01.06,0,.12,0,.05-.01.13-.02.19-.06.55-.32,1.16-.47,1.77-.64.19-.06.32-.18.44-.32.11-.13.13-.28,0-.41-.27-.28-.54-.54-.99-.49Z"/>
            <path class="cls-4" d="M743.67,211.21c.25.26.55.44.86.62.13.08.19.18.22.33.07.32.15.39.43.3.29-.09.5-.02.74.12.23.14.48.1.7-.04.26-.17.27-.32.02-.49-.15-.1-.33-.17-.48-.27-.31-.21-.7-.29-.95-.56-.42-.47-.97-.7-1.53-.91-.35-.13-.68-.29-1.1-.25-.31-.06-.61.11-.92.17-.31.05-.54.22-.75.43-.11.11-.3.25-.21.43.11.21.3.02.45,0,.29-.04.53-.27.83-.25.52.02,1.03.18,1.54.28.06.01.11.05.15.1Z"/>
            <path class="cls-4" d="M787.95,188.89c-.29-.2-.99-.16-1.26.06-.19.15-.34.34-.61.39-.32.06-.36.1-.31.44.04.28,0,.53-.17.74-.14.18-.1.33.01.5.11.16.22.3.43.27.16,0,.28-.05.4-.13.27-.19.56-.32.9-.34.14,0,.23-.08.28-.2.07-.17.17-.33.17-.52,0-.2.06-.33.22-.47.26-.22.22-.55-.06-.74Z"/>
            <path class="cls-4" d="M747.22,213.14c-.2.02-.4.06-.59.1-.09.02-.17.08-.17.19,0,.09.08.14.15.15.59.07,1.18.31,1.78.19.43-.09.87-.16,1.3-.25.14-.03.28-.05.31-.22.03-.18-.1-.26-.23-.36-.35-.25-.81-.26-1.16-.54-.07-.05-.21-.02-.32-.02-.14,0-.28.01-.33.02-.15,0-.21-.03-.27-.02-.17.03-.39-.15-.51.05-.12.19.12.28.19.43.08.17.04.26-.16.28Z"/>
          </g>
        </g>
        <path class="cls-5" d="M827.85,208.72s0,0,0,0c-.11-.61-.23-1.22-.37-1.82-.02-.1-.04-.21-.07-.31-.13-.6-.28-1.19-.43-1.78-.02-.07-.04-.15-.06-.22-.15-.56-.31-1.12-.48-1.67-.02-.06-.04-.12-.05-.18-.18-.59-.37-1.17-.57-1.75-.03-.09-.06-.18-.09-.27-.41-1.18-.87-2.33-1.37-3.47-.03-.07-.06-.14-.09-.22-.25-.57-.52-1.14-.79-1.71,0-.01-.01-.02-.02-.03-.28-.57-.57-1.13-.87-1.69-.02-.03-.03-.06-.04-.09-.3-.56-.61-1.12-.93-1.66-.02-.03-.04-.07-.06-.1-.65-1.11-1.34-2.19-2.07-3.24-.02-.03-.04-.05-.05-.08-1.87-2.7-3.99-5.2-6.33-7.49h0c8.98,12.07,16.9,46.76-12.43,67.9-25.11,18.1-56.68,5.44-64.16,1.52,9.49,11.8,24.05,19.36,40.37,19.36,28.6,0,51.78-23.18,51.78-51.78,0-3.15-.28-6.23-.82-9.22h0Z"/>
      </g>
    </g>
  </g>
</svg>