<?xml version="1.0" encoding="UTF-8" standalone="no"?>
<!-- Created with Inkscape (http://www.inkscape.org/) -->

<svg
   width="38.541855mm"
   height="47.089386mm"
   viewBox="0 0 38.541855 47.089386"
   version="1.1"
   id="svg1"
   inkscape:version="1.3 (0e150ed, 2023-07-21)"
   sodipodi:docname="icon.svg"
   xmlns:inkscape="http://www.inkscape.org/namespaces/inkscape"
   xmlns:sodipodi="http://sodipodi.sourceforge.net/DTD/sodipodi-0.dtd"
   xmlns="http://www.w3.org/2000/svg"
   xmlns:svg="http://www.w3.org/2000/svg">
  <sodipodi:namedview
     id="namedview1"
     pagecolor="#ffffff"
     bordercolor="#000000"
     borderopacity="0.25"
     inkscape:showpageshadow="2"
     inkscape:pageopacity="0.0"
     inkscape:pagecheckerboard="0"
     inkscape:deskcolor="#d1d1d1"
     inkscape:document-units="mm"
     inkscape:zoom="0.54431117"
     inkscape:cx="68.894416"
     inkscape:cy="-96.452182"
     inkscape:window-width="1280"
     inkscape:window-height="772"
     inkscape:window-x="0"
     inkscape:window-y="60"
     inkscape:window-maximized="0"
     inkscape:current-layer="layer1" />
  <defs
     id="defs1" />
  <g
     inkscape:label="Layer 1"
     inkscape:groupmode="layer"
     id="layer1"
     transform="translate(-86.800672,-102.88259)">
    <g
       id="g16"
       style="display:inline"
       transform="matrix(0.26458333,0,0,0.26458333,-99.627388,74.11593)">
      <path
         class="cls-1"
         d="m 850.28,217.12 c 0,38.46 -32.82,69.58 -72.99,69.58 -40.17,0 -72.68,-31.11 -72.68,-69.58 0,-38.47 32.54,-70.14 72.68,-70.14 40.14,0 72.99,31.39 72.99,70.14 z m -52,-6 c -4.39,-16.06 -17.3,-26.52 -28.8,-23.36 -11.53,3.17 -17.3,18.72 -12.89,34.78 4.41,16.06 17.3,26.52 28.8,23.36 11.51,-3.15 17.3,-18.7 12.88,-34.78 z"
         id="path16"
         style="fill:#ea7134;stroke-width:0px" />
    </g>
    <path
       class="cls-3"
       d="m 99.045585,127.98774 c 0.0265,-0.0767 0.008,-0.14552 -0.045,-0.20637 -0.0635,-0.0794 -0.10054,-0.16934 -0.13229,-0.26988 -0.0106,-0.0291 -0.0159,-0.0608 -0.0238,-0.09 -0.0291,0.15875 -0.0556,0.3175 -0.082,0.47625 0.037,0.0423 0.0741,0.0847 0.11112,0.127 0.0582,0.0688 0.14288,0.0476 0.17198,-0.037 z"
       id="path17"
       style="display:inline;fill:#aad16a;stroke-width:0px" />
    <circle
       class="cls-4"
       cx="105.86126"
       cy="131.69455"
       r="9.8901253"
       id="circle17"
       style="display:inline;fill:#ffffff;stroke-width:0px" />
    <path
       class="cls-1"
       d="m 103.80809,113.40656 c 1.16682,0.22225 2.29659,0.6297 3.49515,0.97366 0.75935,-1.83091 1.10596,-3.79941 1.3335,-5.79173 0.0159,-0.13493 -0.15081,-0.30691 -0.26458,-0.43391 -1.20121,-1.34673 -1.06627,-3.43959 0.30427,-4.61698 0.60854,-0.52123 1.2991,-0.83079 2.09021,-0.54769 0.84137,0.29898 1.27,1.00012 1.41287,1.83885 0.22225,1.29911 -0.10583,2.42359 -1.18004,3.29142 -0.20373,0.16404 -0.34131,0.49213 -0.38365,0.762 -0.33073,2.08492 -0.61118,4.17777 -0.96043,6.26004 -0.0688,0.40217 -0.0238,0.6059 0.3122,0.83079 0.73555,0.49213 1.43934,1.03452 2.29394,1.65629 0.6059,-0.63764 1.29646,-1.27264 1.8759,-1.9976 1.73831,-2.17752 2.88396,-4.64608 3.40518,-7.38717 0.0529,-0.27781 -0.037,-0.64558 -0.1905,-0.89164 -0.66675,-1.08215 -0.55297,-2.55588 0.3175,-3.48456 0.7329,-0.78052 1.9394,-1.03982 2.70669,-0.58209 0.91017,0.5424 1.42611,1.85738 0.98954,2.96863 -0.24341,0.62441 -0.78052,1.13506 -1.18533,1.69333 -0.24077,0.33338 -0.61912,0.62971 -0.71173,0.99748 -0.96308,3.88408 -2.72521,7.31573 -5.56419,10.17587 -0.23018,0.23019 -0.18256,0.73555 -0.28045,1.19328"
       id="path18"
       style="display:inline;fill:#ea7134;stroke-width:0px" />
    <circle
       class="cls-4"
       cx="109.74535"
       cy="105.54314"
       r="0.96837503"
       id="circle18"
       style="display:inline;fill:#ffffff;stroke-width:0px" />
    <circle
       class="cls-4"
       cx="119.44231"
       cy="105.54314"
       r="0.96837503"
       id="circle19"
       style="display:inline;fill:#ffffff;stroke-width:0px" />
    <g
       id="g33"
       style="display:inline"
       transform="matrix(0.26458333,0,0,0.26458333,-99.627388,74.11593)">
      <g
         id="g32">
        <circle
           class="cls-2"
           cx="776.88"
           cy="217.94"
           r="51.779999"
           id="circle20"
           style="fill:#2dd6e2;stroke-width:0px" />
        <g
           id="g31">
          <path
             class="cls-4"
             d="m 811.93,180.78 c -0.33,-0.26 -0.71,-0.23 -1.05,0.05 -0.12,0.1 -0.24,0.19 -0.36,0.29 -0.07,0.06 -0.17,0.12 -0.25,0.08 -0.4,-0.18 -0.86,-0.14 -1.25,-0.33 -0.73,-0.35 -1.53,-0.47 -2.31,-0.66 -0.37,-0.09 -0.73,-0.22 -1.09,-0.37 -0.38,-0.16 -0.73,-0.4 -1.15,-0.45 -0.6,-0.07 -1.2,-0.14 -1.64,-0.11 -0.5,0 -0.84,0 -1.18,0 -0.14,0 -0.3,-0.02 -0.4,0.08 -0.35,0.37 -0.82,0.3 -1.25,0.38 -0.12,0.02 -0.25,0 -0.35,0.08 -0.62,0.5 -1.28,0.95 -1.79,1.58 -0.06,0.07 -0.13,0.13 -0.2,0.19 -0.39,0.33 -0.78,0.66 -1.07,1.09 -0.11,0.17 -0.26,0.3 -0.43,0.42 -0.34,0.24 -0.69,0.47 -1.09,0.6 -0.34,0.11 -0.57,0.41 -0.91,0.54 -0.76,0.28 -0.73,0.26 -0.68,1.18 0.01,0.21 0.1,0.42 0.16,0.63 0.04,0.13 0.08,0.27 0.11,0.4 0.08,0.39 0.32,0.63 0.71,0.65 0.32,0.02 0.61,-0.05 0.87,-0.25 0.11,-0.08 0.21,-0.18 0.33,-0.26 0.15,-0.11 0.28,-0.12 0.46,0 0.42,0.31 0.69,0.75 1,1.14 0.14,0.18 0.08,0.35 -0.11,0.47 -0.13,0.08 -0.26,0.16 -0.38,0.26 -0.1,0.08 -0.09,0.19 -0.06,0.3 0.03,0.12 0.13,0.19 0.24,0.17 0.42,-0.08 0.87,-0.08 1.24,-0.33 0.19,-0.12 0.37,-0.23 0.59,-0.22 0.23,0.01 0.33,-0.13 0.39,-0.32 0.09,-0.3 0.19,-0.59 0.18,-0.9 0,-0.23 0.07,-0.39 0.31,-0.45 0.1,-0.03 0.2,-0.09 0.29,-0.15 0.48,-0.34 0.5,-0.67 0.08,-1.07 -0.06,-0.05 -0.12,-0.1 -0.17,-0.15 -0.47,-0.39 -0.42,-0.93 0.12,-1.22 0.14,-0.07 0.27,-0.15 0.41,-0.22 0.38,-0.22 0.72,-0.46 0.9,-0.89 0.11,-0.27 0.35,-0.44 0.65,-0.45 0.2,-0.01 0.4,0 0.6,0.01 0.08,0 0.16,0.02 0.2,0.1 0.06,0.12 -0.05,0.16 -0.11,0.22 -0.31,0.26 -0.57,0.55 -0.94,0.74 -0.36,0.18 -0.62,0.45 -0.55,0.92 0.1,0.67 0.35,1.21 1.06,1.4 0.03,0 0.06,0.01 0.09,0.03 0.28,0.12 0.43,0.35 0.41,0.61 -0.03,0.34 -0.16,0.53 -0.5,0.58 -0.45,0.06 -0.65,0.31 -0.72,0.72 -0.02,0.11 -0.04,0.21 -0.06,0.32 -0.14,0.6 -0.48,0.91 -1.02,0.85 -0.15,-0.02 -0.31,0.03 -0.46,0.04 -0.53,0.04 -1,0.31 -1.51,0.44 -0.14,0.04 -0.26,0.1 -0.37,-0.05 -0.3,-0.4 -0.66,-0.4 -1.06,-0.17 -0.15,0.08 -0.29,0.12 -0.48,0.03 -0.41,-0.2 -0.52,-0.37 -0.38,-0.81 0.1,-0.29 0.08,-0.58 0.05,-0.87 -0.02,-0.17 -0.11,-0.29 -0.31,-0.28 -0.3,0.02 -0.68,0.35 -0.78,0.65 -0.13,0.36 -0.14,0.72 -0.09,1.09 0.03,0.25 -0.06,0.41 -0.29,0.51 -0.23,0.1 -0.44,0.22 -0.68,0.3 -0.36,0.13 -0.68,0.35 -0.88,0.66 -0.27,0.42 -0.69,0.6 -1.08,0.84 -0.19,0.12 -0.37,0.21 -0.45,0.43 -0.13,0.36 -0.53,0.34 -0.78,0.53 -0.14,0.11 -0.29,0 -0.44,-0.05 -0.21,-0.07 -0.46,-0.1 -0.59,0.12 -0.19,0.35 -0.48,0.4 -0.82,0.4 -0.22,0 -0.43,0.02 -0.64,0.1 -0.09,0.03 -0.17,0.08 -0.18,0.19 0,0.17 0.26,0.52 0.44,0.53 0.62,0.04 0.94,0.49 1.25,0.93 0.2,0.28 0.26,0.59 0.13,0.92 -0.06,0.16 -0.09,0.32 -0.12,0.49 -0.06,0.41 -0.14,0.47 -0.54,0.46 -0.11,0 -0.22,0 -0.32,-0.01 -0.82,-0.13 -1.65,-0.11 -2.48,-0.17 -0.09,0 -0.19,0 -0.27,0.06 -0.3,0.22 -0.74,0.33 -0.55,0.89 0.07,0.21 -0.11,0.45 -0.04,0.68 0.08,0.27 0,0.51 -0.08,0.77 -0.07,0.22 -0.21,0.41 -0.31,0.62 -0.05,0.11 -0.15,0.25 -0.05,0.34 0.26,0.25 0.21,0.57 0.21,0.87 0,0.24 0.12,0.33 0.35,0.33 0.08,0 0.16,0.01 0.23,0 0.39,-0.06 0.72,0.05 1.02,0.31 0.24,0.21 0.57,0.31 0.86,0.17 0.24,-0.11 0.47,-0.16 0.71,-0.13 0.64,0.08 1.05,-0.33 1.44,-0.7 0.19,-0.18 0.27,-0.5 0.46,-0.72 0.04,-0.04 0.03,-0.16 0,-0.22 -0.11,-0.21 0,-0.35 0.11,-0.5 0.12,-0.16 0.25,-0.32 0.35,-0.49 0.12,-0.2 0.26,-0.31 0.5,-0.35 0.33,-0.05 0.56,-0.31 0.8,-0.53 0.17,-0.15 0.1,-0.38 0.11,-0.57 0.02,-0.36 0.26,-0.57 0.66,-0.54 0.23,0.02 0.45,0.1 0.68,0.14 0.15,0.03 0.32,0.13 0.45,0.04 0.3,-0.21 0.65,-0.33 0.96,-0.53 0.38,-0.24 0.42,-0.27 0.75,0 0.12,0.1 0.22,0.22 0.28,0.37 0.11,0.26 0.3,0.46 0.51,0.65 0.45,0.4 0.93,0.76 1.49,1 0.41,0.17 0.69,0.52 0.97,0.84 0.25,0.29 0.06,0.7 -0.32,0.81 -0.38,0.11 -0.76,0.08 -1.15,0.08 -0.13,0 -0.26,0.02 -0.31,0.16 -0.05,0.15 0.07,0.23 0.18,0.29 0.33,0.19 0.7,0.33 1.03,0.53 0.21,0.13 0.41,0.01 0.41,-0.24 0,-0.31 0.14,-0.45 0.4,-0.53 0.33,-0.1 0.39,-0.4 0.53,-0.66 0.1,-0.19 0.04,-0.34 -0.05,-0.52 -0.1,-0.2 0.02,-0.32 0.24,-0.31 0.15,0 0.24,0.13 0.37,0.18 0.16,0.07 0.27,0 0.27,-0.18 0,-0.2 -0.13,-0.31 -0.26,-0.41 -0.33,-0.23 -0.67,-0.44 -1,-0.67 -0.15,-0.11 -0.3,-0.19 -0.48,-0.24 -0.32,-0.1 -0.65,-0.26 -0.78,-0.59 -0.11,-0.26 -0.26,-0.45 -0.47,-0.61 -0.07,-0.05 -0.14,-0.13 -0.19,-0.2 -0.11,-0.18 -0.08,-0.49 0.05,-0.6 0.15,-0.13 0.35,-0.2 0.51,-0.06 0.29,0.25 0.65,0.41 0.86,0.76 0.14,0.25 0.4,0.4 0.67,0.46 0.19,0.04 0.34,0.13 0.47,0.27 0.09,0.11 0.21,0.19 0.33,0.25 0.52,0.27 0.74,0.72 0.75,1.29 0,0.14 -0.03,0.29 0.07,0.4 0.35,0.41 0.5,0.96 0.91,1.33 0.13,0.12 0.21,0.3 0.21,0.45 0,0.46 0.32,0.55 0.66,0.63 0.27,0.06 0.35,0.01 0.45,-0.25 0.21,-0.58 0.44,-1.15 0.15,-1.77 -0.01,-0.03 -0.01,-0.06 -0.02,-0.09 -0.03,-0.27 0.24,-0.7 0.45,-0.73 0.4,-0.06 0.8,0.23 0.84,0.6 0.02,0.18 0.02,0.37 0.01,0.56 -0.02,0.39 0.11,0.74 0.31,1.05 0.18,0.27 0.41,0.5 0.79,0.48 0.3,-0.01 0.58,0.12 0.84,0.24 0.22,0.1 0.41,0.15 0.59,-0.03 0.13,-0.12 0.26,-0.11 0.43,-0.07 0.22,0.06 0.44,0.12 0.65,0.23 0.3,0.15 0.62,0.17 0.92,-0.04 0.1,-0.07 0.22,-0.13 0.33,-0.15 0.31,-0.07 0.65,0.11 0.68,0.4 0.04,0.35 0.11,0.73 -0.03,1.06 -0.13,0.32 -0.23,0.63 -0.3,0.96 -0.06,0.27 -0.12,0.55 -0.24,0.79 -0.15,0.31 -0.16,0.61 -0.07,0.94 0.11,0.4 0.31,0.77 0.46,1.15 0.27,0.65 0.61,1.24 1.04,1.79 0.19,0.24 0.36,0.51 0.45,0.8 0.06,0.17 0.16,0.3 0.3,0.4 0.29,0.2 0.46,0.49 0.63,0.79 0.17,0.3 0.2,0.65 0.27,0.98 0.09,0.44 0.26,0.82 0.69,1.04 0.12,0.06 0.23,0.16 0.31,0.27 0.41,0.59 0.79,1.22 1.03,1.89 0.26,0.73 0.65,1.39 0.91,2.12 0.09,0.26 0.31,0.45 0.58,0.58 0.25,0.11 0.41,-0.06 0.59,-0.16 0.04,-0.02 0.09,-0.03 0.13,-0.04 0.83,-0.31 1.68,-0.61 2.45,-1.05 0.15,-0.09 0.32,-0.1 0.49,-0.14 0.34,-0.08 0.64,-0.22 0.81,-0.55 0.1,-0.2 0.28,-0.35 0.46,-0.44 0.52,-0.26 1.04,-0.5 1.52,-0.84 0.55,-0.38 1.12,-0.7 1.27,-1.43 0.03,-0.15 0.13,-0.28 0.21,-0.41 0.23,-0.35 0.46,-0.69 0.57,-1.1 0.04,-0.16 0.07,-0.3 -0.04,-0.44 -0.18,-0.22 -0.34,-0.44 -0.52,-0.65 -0.13,-0.16 -0.29,-0.29 -0.52,-0.25 -0.27,0.04 -0.43,-0.1 -0.56,-0.31 -0.06,-0.1 -0.15,-0.2 -0.22,-0.3 -0.38,-0.57 -0.79,-0.6 -1.2,-0.06 -0.13,0.17 -0.27,0.31 -0.47,0.36 -0.37,0.09 -0.74,0.06 -1.11,0.02 -0.13,-0.02 -0.23,-0.1 -0.19,-0.26 0.18,-0.75 -0.23,-1.15 -0.82,-1.47 -0.61,-0.32 -1.04,-0.81 -1.28,-1.45 -0.14,-0.37 0.17,-0.71 0.56,-0.65 0.55,0.08 0.76,0.48 0.92,0.93 0.07,0.21 0.11,0.45 0.32,0.54 0.55,0.24 0.98,0.68 1.59,0.83 0.31,0.08 0.58,0.15 0.88,0.02 0.11,-0.05 0.23,-0.08 0.34,-0.14 0.23,-0.13 0.31,-0.09 0.43,0.14 0.04,0.07 0.07,0.14 0.09,0.21 0.08,0.28 0.27,0.43 0.56,0.48 0.4,0.06 0.78,0.17 1.18,0.24 0.82,0.15 1.65,0.22 2.48,0.03 0.17,-0.04 0.35,-0.06 0.53,-0.08 -1.94,-10.79 -7.23,-20.42 -14.74,-27.78 -0.06,0.01 -0.12,0.03 -0.18,0.04 -0.38,0.09 -0.69,0.05 -0.99,-0.2 z"
             id="path20"
             style="fill:#ffffff;stroke-width:0px" />
          <path
             class="cls-4"
             d="m 819.99,217.57 c -0.37,0.23 -0.8,0.21 -1.2,0.31 -0.65,0.17 -1.28,0.44 -1.95,0.55 -0.5,0.08 -1.06,-0.22 -1.07,-0.69 -0.01,-0.38 -0.21,-0.63 -0.44,-0.88 -0.23,-0.25 -0.48,-0.49 -0.67,-0.76 -0.16,-0.22 -0.32,-0.37 -0.59,-0.46 -0.56,-0.18 -0.88,-0.57 -0.92,-1.19 -0.02,-0.37 -0.18,-0.72 -0.44,-1 -0.44,-0.48 -0.73,-1 -0.79,-1.67 -0.04,-0.45 -0.21,-0.9 -0.53,-1.26 -0.37,-0.42 -0.69,-0.86 -0.88,-1.4 -0.07,-0.2 -0.19,-0.39 -0.26,-0.59 -0.19,-0.55 -0.69,-0.96 -0.62,-1.64 0.04,-0.39 -0.2,-0.8 -0.27,-1.21 -0.11,-0.63 -0.59,-0.92 -1.07,-1.19 -0.39,-0.22 -0.78,-0.1 -1.12,0.16 -0.22,0.17 -0.43,0.2 -0.68,0.06 -0.18,-0.09 -0.38,-0.12 -0.58,-0.16 -0.6,-0.14 -1.21,-0.21 -1.78,-0.48 -0.26,-0.12 -0.54,-0.18 -0.78,-0.37 -0.24,-0.2 -0.58,-0.21 -0.89,-0.14 -0.12,0.03 -0.23,0.08 -0.36,0.09 -0.3,0.02 -0.44,0.27 -0.61,0.46 -0.15,0.17 -0.06,0.34 0,0.52 0.09,0.29 -0.05,0.48 -0.36,0.5 -0.18,0.01 -0.33,-0.06 -0.46,-0.18 -0.29,-0.25 -0.63,-0.39 -1.02,-0.39 -0.29,0 -0.51,-0.12 -0.59,-0.42 -0.11,-0.41 -0.44,-0.53 -0.81,-0.58 -0.17,-0.02 -0.34,-0.02 -0.51,0 -0.41,0.05 -0.76,-0.12 -1.09,-0.32 -0.35,-0.21 -0.43,-0.57 -0.23,-0.94 0.07,-0.14 0.12,-0.28 0.11,-0.44 -0.02,-0.25 -0.02,-0.49 0.02,-0.74 0.05,-0.26 -0.11,-0.48 -0.35,-0.52 -0.24,-0.04 -0.51,-0.08 -0.73,0.03 -0.2,0.1 -0.38,0.08 -0.58,0.08 -0.44,0.01 -0.9,-0.12 -1.31,0.17 -0.1,0.07 -0.21,0.04 -0.31,0 -0.27,-0.13 -0.54,-0.09 -0.82,-0.04 -0.51,0.09 -1.01,0.26 -1.55,0.23 -0.27,-0.02 -0.51,0.13 -0.68,0.34 -0.08,0.1 -0.17,0.16 -0.29,0.21 -0.55,0.23 -1.13,0.29 -1.71,0.36 -0.29,0.03 -0.57,0.03 -0.83,-0.19 -0.22,-0.18 -0.51,-0.07 -0.67,0.18 -0.1,0.16 -0.22,0.31 -0.28,0.48 -0.11,0.3 -0.32,0.46 -0.59,0.61 -0.65,0.36 -1.14,0.89 -1.34,1.61 -0.12,0.45 -0.32,0.84 -0.6,1.19 -0.32,0.39 -0.6,0.83 -1.14,0.97 -0.18,0.05 -0.3,0.18 -0.39,0.37 -0.1,0.22 -0.21,0.51 -0.4,0.61 -0.39,0.2 -0.5,0.52 -0.59,0.88 -0.03,0.12 -0.09,0.23 -0.15,0.34 -0.29,0.52 -0.66,0.99 -0.92,1.54 -0.27,0.57 -0.37,1.07 -0.14,1.67 0.23,0.6 0.43,1.22 0.2,1.87 -0.04,0.1 -0.04,0.21 -0.06,0.32 -0.03,0.24 -0.14,0.43 -0.32,0.6 -0.27,0.26 -0.4,0.57 -0.39,0.96 0,0.71 0.3,1.31 0.69,1.88 0.12,0.18 0.33,0.22 0.48,0.36 0.27,0.24 0.44,0.56 0.7,0.8 0.18,0.16 0.31,0.34 0.38,0.57 0.26,0.88 0.8,1.56 1.57,2.04 0.45,0.28 0.87,0.58 1.26,0.93 0.4,0.35 0.83,0.45 1.32,0.17 0.12,-0.07 0.26,-0.11 0.39,-0.15 0.5,-0.15 0.98,-0.3 1.53,-0.12 0.34,0.11 0.72,0.26 1.12,0.08 0.49,-0.22 1,-0.4 1.49,-0.63 0.48,-0.23 0.96,-0.31 1.47,-0.31 0.6,0 0.95,0.25 1.15,0.82 0.18,0.53 0.32,0.61 0.89,0.52 0.42,-0.07 0.82,-0.03 1.21,0.18 0.48,0.27 0.56,0.45 0.47,1.01 -0.05,0.29 -0.21,0.56 -0.19,0.85 0.02,0.4 -0.06,0.77 -0.21,1.13 -0.06,0.14 -0.12,0.29 -0.05,0.45 0.11,0.24 0.17,0.49 0.35,0.7 0.33,0.39 0.63,0.8 0.95,1.19 0.27,0.33 0.48,0.67 0.53,1.1 0.03,0.27 0.15,0.53 0.3,0.77 0.17,0.26 0.27,0.56 0.26,0.88 -0.03,0.55 0.11,1.07 0.33,1.57 0.25,0.59 0.21,1.14 -0.28,1.61 -0.21,0.2 -0.32,0.44 -0.36,0.73 -0.07,0.46 -0.25,0.89 -0.36,1.34 -0.11,0.43 -0.11,0.88 -0.14,1.33 0,0.15 0.08,0.3 0.17,0.43 0.21,0.29 0.33,0.62 0.48,0.95 0.19,0.44 0.32,0.91 0.66,1.27 0.31,0.32 0.37,0.69 0.34,1.11 -0.02,0.29 -0.06,0.59 0.04,0.88 0.1,0.3 0.14,0.6 0.15,0.91 0.03,0.49 0.12,1.01 0.45,1.34 0.59,0.56 0.89,1.23 1.04,1.99 0,0.02 0,0.03 0.02,0.04 0.16,0.28 0.2,0.58 0.16,1 -0.11,0.32 0.16,0.67 0.22,1.06 0,0.06 0.04,0.13 0.09,0.15 0.31,0.15 0.61,0.39 0.99,0.33 0.59,-0.09 1.2,-0.07 1.77,-0.31 0.07,-0.03 0.15,-0.04 0.23,-0.04 0.6,0.02 1.15,-0.14 1.71,-0.32 0.57,-0.18 1.01,-0.5 1.38,-0.95 0.14,-0.17 0.27,-0.34 0.44,-0.47 0.29,-0.23 0.48,-0.51 0.65,-0.83 0.16,-0.32 0.36,-0.63 0.63,-0.85 0.32,-0.26 0.48,-0.59 0.61,-0.96 0.05,-0.16 0.12,-0.32 0.15,-0.49 0.08,-0.61 0.42,-1 0.95,-1.27 0.21,-0.11 0.4,-0.26 0.48,-0.49 0.22,-0.61 0.39,-1.24 0.14,-1.89 -0.04,-0.12 -0.07,-0.24 -0.1,-0.36 -0.1,-0.55 0.08,-1.01 0.53,-1.34 0.2,-0.14 0.35,-0.31 0.48,-0.49 0.14,-0.19 0.31,-0.33 0.54,-0.42 0.54,-0.22 1.01,-0.54 1.38,-0.99 0.35,-0.43 0.57,-0.9 0.49,-1.49 -0.05,-0.43 -0.04,-0.85 0.04,-1.29 0.09,-0.48 0.09,-0.97 -0.24,-1.42 -0.22,-0.29 -0.4,-0.65 -0.38,-1.02 0.03,-0.62 -0.06,-1.23 -0.2,-1.83 -0.06,-0.25 -0.03,-0.5 0.13,-0.71 0.11,-0.14 0.17,-0.29 0.23,-0.45 0.25,-0.6 0.51,-1.19 1.06,-1.6 0.1,-0.07 0.17,-0.18 0.24,-0.28 0.28,-0.38 0.55,-0.79 0.85,-1.15 0.28,-0.33 0.54,-0.7 0.94,-0.89 0.94,-0.45 1.54,-1.24 2.01,-2.11 0.52,-0.98 0.95,-2.01 1.41,-3.02 0.04,-0.1 0.04,-0.21 0.07,-0.31 0.14,-0.42 -0.03,-0.86 0.07,-1.29 0.04,-0.17 -0.22,-0.38 -0.37,-0.29 z"
             id="path21"
             style="fill:#ffffff;stroke-width:0px" />
          <path
             class="cls-4"
             d="m 726.91,208.32 c -0.03,0.24 0.07,0.41 0.27,0.55 0.38,0.26 0.64,0.63 0.84,1.03 0.12,0.25 0.25,0.5 0.4,0.73 0.23,0.33 0.23,0.69 0.07,1.06 -0.25,0.56 -0.05,1.1 0.51,1.37 0.05,0.03 0.13,0.05 0.16,0.09 0.24,0.37 0.61,0.55 1.02,0.67 0.07,0.02 0.13,0.08 0.18,0.14 0.21,0.24 0.48,0.39 0.77,0.51 0.59,0.24 1.17,0.48 1.76,0.71 0.27,0.1 0.54,0.11 0.82,0.02 0.15,-0.05 0.3,-0.07 0.44,-0.13 0.21,-0.08 0.4,-0.03 0.57,0.09 0.14,0.1 0.28,0.19 0.38,0.34 0.69,1.01 1.74,1.36 2.88,1.56 0.28,0.05 0.5,0.2 0.64,0.43 0.16,0.27 0.33,0.55 0.37,0.88 0.07,0.49 0.29,0.86 0.79,1.04 0.28,0.1 0.55,0.27 0.69,0.58 0.11,0.25 0.33,0.37 0.59,0.39 0.31,0.03 0.56,0.12 0.76,0.38 0.13,0.17 0.34,0.13 0.52,0.08 0.16,-0.04 0.19,-0.19 0.18,-0.34 0,-0.13 0.02,-0.24 0.09,-0.35 0.1,-0.14 0.12,-0.3 0.03,-0.43 -0.1,-0.14 -0.29,-0.11 -0.43,-0.07 -0.39,0.11 -0.69,-0.02 -0.98,-0.27 -0.09,-0.08 -0.18,-0.17 -0.28,-0.24 -0.4,-0.31 -0.49,-0.75 -0.34,-1.17 0.21,-0.57 0.16,-1.2 0.46,-1.74 0.1,-0.17 0.04,-0.4 0.03,-0.6 0,-0.1 -0.07,-0.16 -0.15,-0.22 -0.46,-0.37 -0.98,-0.51 -1.56,-0.4 -0.22,0.04 -0.43,0 -0.65,0 -0.18,0 -0.28,-0.09 -0.34,-0.26 -0.11,-0.33 -0.07,-0.64 0.13,-0.92 0.22,-0.31 0.36,-0.64 0.5,-0.99 0.16,-0.41 0.1,-0.88 0.45,-1.24 0.15,-0.16 0,-0.37 -0.26,-0.42 -0.62,-0.13 -1.19,0.04 -1.75,0.25 -0.18,0.07 -0.27,0.19 -0.29,0.38 -0.03,0.33 -0.16,0.63 -0.29,0.92 -0.17,0.37 -0.36,0.49 -0.76,0.45 -0.33,-0.03 -0.64,-0.03 -0.97,0.02 -0.58,0.1 -1.16,-0.31 -1.44,-0.84 -0.32,-0.61 -0.28,-1.25 -0.33,-1.89 0,-0.09 0.02,-0.18 0.03,-0.27 0.06,-0.56 0.28,-1.07 0.51,-1.58 0.12,-0.26 0.21,-0.51 0.19,-0.8 -0.02,-0.31 0.09,-0.59 0.35,-0.77 0.3,-0.21 0.58,-0.46 0.93,-0.6 0.33,-0.13 0.65,-0.28 0.95,-0.48 0.27,-0.18 0.55,-0.2 0.88,-0.08 0.54,0.19 1.12,0.18 1.68,0.26 0.15,0.02 0.21,-0.08 0.29,-0.18 0.13,-0.19 0.29,-0.37 0.53,-0.42 0.29,-0.06 0.57,-0.14 0.86,-0.19 0.27,-0.05 0.54,0 0.68,0.27 0.11,0.22 0.26,0.26 0.49,0.23 0.53,-0.07 0.81,0.22 0.74,0.75 -0.03,0.2 -0.02,0.4 0.03,0.6 0.11,0.49 0.27,0.94 0.56,1.36 0.21,0.3 0.35,0.34 0.61,0.1 0.28,-0.26 0.43,-0.59 0.45,-0.98 0.03,-0.49 -0.12,-0.95 -0.23,-1.41 -0.22,-0.92 0.04,-1.69 0.79,-2.25 0.61,-0.46 1.25,-0.89 1.95,-1.23 0.39,-0.19 0.78,-0.35 1.03,-0.78 0.15,-0.26 0.35,-0.51 0.42,-0.81 0.11,-0.45 0.34,-0.83 0.63,-1.17 0.35,-0.41 0.71,-0.81 1.08,-1.21 0.4,-0.44 0.85,-0.75 1.44,-0.82 0.28,-0.03 0.53,-0.17 0.78,-0.27 0.18,-0.07 0.28,-0.2 0.25,-0.4 -0.03,-0.26 0.12,-0.43 0.29,-0.6 0.27,-0.25 0.64,-0.32 0.91,-0.52 0.37,-0.27 0.73,-0.19 1.1,-0.21 0.19,0 0.33,0.08 0.42,0.29 0.11,0.28 0.32,0.31 0.55,0.12 0.14,-0.12 0.26,-0.26 0.4,-0.39 0.1,-0.1 0.2,-0.21 0.35,-0.2 0.46,0.05 0.86,-0.24 1.31,-0.22 0.1,0 0.21,-0.03 0.32,-0.07 0.24,-0.08 0.3,-0.33 0.12,-0.51 -0.08,-0.08 -0.18,-0.12 -0.29,-0.13 -0.17,-0.02 -0.33,-0.06 -0.5,-0.09 -0.48,-0.1 -0.68,-0.4 -0.56,-0.87 0.05,-0.21 0.15,-0.42 0.32,-0.56 0.25,-0.21 0.35,-0.47 0.27,-0.78 -0.05,-0.21 0.06,-0.29 0.21,-0.35 0.35,-0.15 0.73,-0.17 1.09,-0.12 0.45,0.07 0.88,0.08 1.32,-0.06 0.24,-0.08 0.41,0.15 0.31,0.39 -0.08,0.18 -0.21,0.34 -0.37,0.47 -0.2,0.17 -0.28,0.4 -0.37,0.63 -0.07,0.19 -0.04,0.29 0.17,0.33 0.29,0.05 0.58,0.1 0.87,0.03 0.31,-0.07 0.62,-0.08 0.9,0.11 0.27,0.18 0.58,0.21 0.88,0.28 0.43,0.09 0.73,-0.29 0.57,-0.71 -0.1,-0.26 -0.12,-0.5 0,-0.76 0.19,-0.39 0.19,-0.4 -0.21,-0.55 -0.33,-0.13 -0.4,-0.29 -0.38,-0.63 0.03,-0.47 0.29,-0.87 0.35,-1.34 0.04,-0.28 0.02,-0.48 -0.21,-0.65 -0.1,-0.07 -0.2,-0.15 -0.19,-0.29 0.02,-0.26 -0.16,-0.36 -0.36,-0.41 -0.52,-0.13 -0.66,-0.51 -0.67,-0.98 -0.01,-0.28 0,-0.56 0,-0.84 -0.01,-0.48 -0.15,-0.91 -0.46,-1.28 -0.24,-0.28 -0.31,-0.3 -0.61,-0.08 -0.37,0.28 -0.75,0.54 -1.15,0.78 -0.26,0.16 -0.56,0.14 -0.77,-0.05 -0.2,-0.17 -0.22,-0.35 -0.08,-0.67 0.03,-0.07 0.07,-0.14 0.1,-0.21 0.12,-0.28 0.11,-0.41 -0.14,-0.54 -0.23,-0.12 -0.38,-0.3 -0.55,-0.48 -0.17,-0.17 -0.34,-0.37 -0.6,-0.41 -0.49,-0.06 -0.98,-0.11 -1.48,-0.11 -0.18,0 -0.35,0.05 -0.47,0.17 -0.31,0.29 -0.43,0.71 -0.66,1.07 0.06,0.55 -0.25,0.82 -0.72,0.99 -0.04,0.02 -0.09,0.03 -0.13,0.05 -0.24,0.14 -0.26,0.26 -0.1,0.48 0.27,0.37 0.28,0.47 0.04,0.86 -0.17,0.27 -0.39,0.46 -0.66,0.63 -0.41,0.26 -0.89,0.35 -1.32,0.57 -0.2,0.1 -0.35,0.21 -0.33,0.45 0.02,0.38 -0.24,0.69 -0.24,1.08 0,0.15 -0.15,0.26 -0.29,0.34 -0.12,0.07 -0.25,0.13 -0.37,0.19 -0.31,0.15 -0.48,0.1 -0.62,-0.22 -0.11,-0.25 -0.13,-0.5 0.03,-0.75 0.19,-0.3 0.3,-0.65 0.54,-0.92 0.11,-0.13 0.06,-0.24 -0.08,-0.29 -0.25,-0.09 -0.5,-0.14 -0.77,-0.14 -0.56,0 -1.04,-0.28 -1.41,-0.62 -0.35,-0.33 -0.71,-0.53 -1.15,-0.64 -0.26,-0.06 -0.36,-0.2 -0.4,-0.44 -0.03,-0.18 -0.02,-0.38 -0.14,-0.53 -0.18,-0.24 -0.07,-0.43 0.09,-0.62 0.19,-0.23 0.45,-0.38 0.68,-0.55 0.63,-0.49 1.32,-0.87 2.12,-0.97 0.41,-0.05 0.72,-0.27 1,-0.53 0.2,-0.18 0.41,-0.26 0.67,-0.28 0.42,-0.03 0.8,0.06 1.11,0.35 0.16,0.14 0.3,0.13 0.46,0.05 0.23,-0.12 0.47,-0.24 0.7,-0.36 0.16,-0.09 0.31,-0.09 0.48,0.02 0.14,0.09 0.3,0.16 0.48,0.16 0.13,0 0.24,-0.05 0.3,-0.18 0.05,-0.12 0,-0.22 -0.09,-0.29 -0.17,-0.13 -0.25,-0.31 -0.3,-0.51 -0.1,-0.37 -0.04,-0.49 0.34,-0.52 0.26,-0.02 0.47,-0.11 0.68,-0.26 0.34,-0.25 0.75,-0.42 0.94,-0.85 0.05,-0.11 0.17,-0.18 0.26,-0.26 0.12,-0.12 0.24,-0.24 0.32,-0.4 0.14,-0.28 0.39,-0.39 0.69,-0.34 0.23,0.04 0.46,0.03 0.69,0.02 0.33,0 0.66,0.08 0.86,0.36 0.13,0.18 0.28,0.31 0.47,0.41 0.3,0.15 0.32,0.35 0.06,0.58 -0.19,0.18 -0.41,0.33 -0.65,0.45 -0.14,0.07 -0.3,0.13 -0.34,0.29 -0.08,0.29 -0.31,0.32 -0.54,0.35 -0.27,0.03 -0.52,-0.02 -0.77,-0.1 -0.4,-0.13 -0.83,0.09 -0.96,0.48 -0.06,0.17 -0.01,0.27 0.18,0.29 0.51,0.05 1.01,0.17 1.52,0.04 0.2,-0.05 0.34,0.03 0.44,0.18 0.08,0.11 0.15,0.24 0.19,0.37 0.08,0.3 0.3,0.45 0.57,0.56 0.3,0.11 0.61,0.23 0.91,0.34 0.28,0.11 0.51,0.09 0.77,-0.1 0.28,-0.21 0.54,-0.45 0.85,-0.64 0.4,-0.25 0.47,-0.63 0.25,-1.05 -0.07,-0.14 -0.14,-0.27 -0.21,-0.42 -0.05,-0.1 -0.07,-0.22 0.05,-0.29 0.1,-0.06 0.2,-0.02 0.3,0.05 0.18,0.13 0.27,0.34 0.43,0.49 0.25,0.24 0.46,0.26 0.74,0.05 0.21,-0.16 0.41,-0.33 0.62,-0.49 0.29,-0.24 0.32,-0.37 0.19,-0.73 -0.07,-0.2 -0.17,-0.35 -0.37,-0.45 -0.44,-0.22 -0.74,-0.55 -0.68,-1.09 0.03,-0.26 -0.1,-0.44 -0.29,-0.6 -0.31,-0.26 -0.66,-0.4 -1.05,-0.47 -0.43,-0.08 -0.74,-0.33 -0.88,-0.74 -0.09,-0.26 -0.26,-0.36 -0.5,-0.42 -0.63,-0.15 -1.27,-0.14 -1.89,-0.07 -0.43,0.05 -0.86,0.08 -1.29,0.08 -0.29,0 -0.59,-0.02 -0.88,0 -0.29,0.03 -0.59,0.03 -0.84,0.22 -0.3,0.22 -0.59,0.45 -0.88,0.68 -0.36,0.31 -0.39,0.44 -0.24,0.89 0.04,0.1 0.1,0.2 0.04,0.31 -0.12,0.22 -0.3,0.36 -0.54,0.38 -0.23,0.02 -0.47,0.02 -0.61,-0.23 -0.15,-0.27 -0.26,-0.56 -0.3,-0.87 -0.04,-0.28 -0.25,-0.46 -0.46,-0.4 -0.37,0.1 -0.76,0.19 -1.07,0.42 -0.34,0.25 -0.7,0.5 -0.53,1.05 0.1,0.32 0,0.37 -0.29,0.54 -0.22,0.14 -0.42,0.07 -0.62,0.02 -0.34,-0.07 -0.69,-0.12 -1,0 -0.24,0.09 -0.47,0.12 -0.72,0.13 -0.28,0 -0.55,0.01 -0.83,0.06 -0.39,0.06 -0.76,0.04 -1.07,-0.29 -0.2,-0.21 -0.51,-0.27 -0.77,-0.22 -0.48,0.09 -0.98,0.14 -1.45,0.27 -0.75,0.21 -1.49,0.32 -2.16,-0.24 -0.14,-0.12 -0.3,-0.15 -0.46,-0.15 -7.34,7 -12.63,16.13 -14.87,26.4 0.27,0.38 0.32,0.86 0.59,1.24 0.04,0.05 0.03,0.15 0.02,0.23 z"
             id="path22"
             style="fill:#ffffff;stroke-width:0px" />
          <path
             class="cls-4"
             d="m 726.51,210.05 c 0.07,-0.21 0.02,-0.39 -0.12,-0.56 -0.17,-0.22 -0.27,-0.46 -0.36,-0.73 -0.03,-0.08 -0.05,-0.16 -0.07,-0.25 -0.08,0.43 -0.15,0.86 -0.22,1.29 0.1,0.11 0.2,0.23 0.3,0.34 0.16,0.19 0.39,0.13 0.47,-0.1 z"
             id="path23"
             style="fill:#ffffff;stroke-width:0px" />
          <path
             class="cls-4"
             d="m 768.51,229.02 c -0.44,-0.05 -0.78,-0.28 -1.06,-0.61 -0.11,-0.13 -0.23,-0.25 -0.36,-0.36 -0.38,-0.29 -0.77,-0.58 -1.3,-0.46 -0.7,0.12 -1.29,-0.23 -1.83,-0.54 -0.9,-0.53 -1.88,-0.85 -2.83,-1.27 -0.42,-0.19 -0.65,-0.44 -0.76,-0.85 -0.04,-0.15 -0.03,-0.31 -0.14,-0.43 -0.27,-0.3 -0.38,-0.66 -0.46,-1.05 -0.05,-0.27 -0.12,-0.57 -0.37,-0.73 -0.26,-0.16 -0.45,-0.37 -0.65,-0.59 -0.07,-0.08 -0.15,-0.16 -0.26,-0.19 -0.51,-0.12 -0.99,-0.35 -1.53,-0.3 -0.73,0.07 -1.23,-0.32 -1.58,-0.91 -0.2,-0.35 -0.44,-0.63 -0.84,-0.75 -0.26,-0.08 -0.39,-0.29 -0.47,-0.53 -0.06,-0.18 0.06,-0.33 0.1,-0.49 0.04,-0.18 0.11,-0.38 -0.12,-0.49 -0.21,-0.09 -0.43,-0.21 -0.67,-0.13 -0.27,0.08 -0.55,0.08 -0.83,0.08 -0.21,0 -0.39,0.03 -0.56,0.17 -0.27,0.22 -0.58,0.24 -0.87,0.06 -0.24,-0.14 -0.49,-0.19 -0.75,-0.22 -0.29,-0.03 -0.54,-0.14 -0.76,-0.31 -0.32,-0.25 -0.7,-0.39 -1.05,-0.57 -0.26,-0.13 -0.59,-0.14 -0.9,-0.18 -0.12,-0.02 -0.24,0 -0.34,0.11 -0.3,0.33 -0.7,0.46 -1.14,0.56 -0.51,0.11 -0.98,0.34 -1.12,0.95 -0.1,0.43 -0.68,0.73 -1.13,0.64 -0.17,-0.03 -0.34,-0.03 -0.51,-0.02 -0.08,0 -0.16,0.04 -0.17,0.13 -0.01,0.19 -0.12,0.41 0.13,0.53 0.1,0.05 0.13,0.13 0.13,0.22 0,0.18 0.09,0.33 0.18,0.47 0.3,0.45 0.35,0.95 0.29,1.47 -0.05,0.44 -0.09,0.88 -0.35,1.28 -0.15,0.23 -0.38,0.36 -0.55,0.55 -0.21,0.23 -0.31,0.55 -0.56,0.73 -0.47,0.34 -0.61,0.84 -0.73,1.35 -0.07,0.32 -0.1,0.7 0.08,1 0.27,0.45 0.18,0.82 -0.15,1.17 -0.13,0.14 -0.22,0.31 -0.2,0.5 0.05,0.56 0.16,1.1 0.68,1.45 0.45,0.3 0.65,0.77 0.79,1.27 0.07,0.27 0.18,0.52 0.39,0.72 0.4,0.4 0.69,0.89 0.93,1.38 0.21,0.42 0.46,0.83 0.64,1.27 0.2,0.51 0.67,0.87 1.06,1.27 0.03,0.03 0.09,0.03 0.13,0.05 0.33,0.14 0.66,0.26 0.98,0.41 0.61,0.29 1.11,0.73 1.56,1.22 0.11,0.11 0.14,0.27 0.18,0.42 0.23,0.73 0.2,1.5 0.24,2.25 0.05,1.08 0.09,2.16 0.2,3.23 0.02,0.18 0.02,0.38 -0.02,0.55 -0.11,0.48 -0.06,0.95 -0.01,1.43 0.06,0.58 0.3,1.1 0.39,1.66 0.1,0.59 0.14,1.15 0.01,1.74 -0.1,0.46 -0.12,0.95 -0.17,1.42 -0.01,0.11 -0.01,0.22 0.04,0.32 0.31,0.58 0.42,1.22 0.53,1.86 0.08,0.45 0.22,0.88 0.54,1.25 0.53,0.61 0.75,1.37 0.82,2.17 0.02,0.23 0.08,0.45 0.21,0.65 0.15,0.22 0.22,0.47 0.26,0.74 0.07,0.47 0.15,0.95 0.45,1.34 0.06,0.07 0.07,0.17 0.12,0.25 0.37,0.62 0.61,1.32 1.15,1.83 0.35,0.34 0.71,0.63 1.27,0.42 0.41,-0.15 0.98,0.16 1.09,0.6 0.07,0.29 0.24,0.36 0.49,0.39 0.2,0.02 0.4,0 0.6,0.07 0.35,0.15 0.73,0.13 1.1,0.13 0.19,0 0.35,-0.03 0.39,-0.24 0.03,-0.2 -0.14,-0.3 -0.28,-0.38 -0.05,-0.03 -0.12,-0.03 -0.18,-0.03 -0.24,0 -0.46,-0.08 -0.66,-0.19 -0.41,-0.23 -0.87,-0.44 -1.06,-0.92 -0.11,-0.27 -0.27,-0.46 -0.48,-0.65 -0.56,-0.5 -0.46,-0.68 -0.24,-1.12 0.03,-0.05 0.07,-0.12 0.06,-0.17 -0.04,-0.34 0.19,-0.53 0.4,-0.74 0.37,-0.39 0.29,-0.79 -0.2,-1.03 -0.43,-0.21 -0.58,-0.72 -0.33,-1.12 0.16,-0.25 0.29,-0.51 0.18,-0.82 -0.06,-0.17 0.03,-0.31 0.13,-0.42 0.19,-0.2 0.28,-0.44 0.32,-0.7 0.04,-0.26 0.15,-0.5 0.3,-0.72 0.15,-0.21 0.27,-0.45 0.31,-0.71 0.05,-0.34 0.28,-0.54 0.58,-0.67 0.11,-0.05 0.24,-0.07 0.35,-0.12 0.54,-0.2 1.02,-0.46 1.04,-1.14 0,-0.06 0.03,-0.12 0.05,-0.18 0.18,-0.49 0.36,-0.98 0.81,-1.31 0.24,-0.17 0.44,-0.39 0.57,-0.66 0.19,-0.39 0.36,-0.79 0.52,-1.19 0.15,-0.37 0.24,-0.77 0.6,-1.02 0.37,-0.25 0.28,-0.75 0.58,-1.03 0.07,-0.06 0.13,-0.13 0.2,-0.19 0.17,-0.14 0.24,-0.32 0.24,-0.53 0,-0.25 0,-0.49 -0.07,-0.73 -0.29,-0.97 -0.12,-1.36 0.75,-1.89 0.15,-0.09 0.3,-0.15 0.47,-0.2 0.15,-0.05 0.3,-0.09 0.43,-0.18 0.33,-0.24 0.7,-0.35 1.12,-0.37 0.36,-0.02 0.79,0 0.94,-0.49 0.02,-0.05 0.09,-0.09 0.14,-0.12 0.18,-0.11 0.25,-0.27 0.23,-0.47 -0.03,-0.26 0.07,-0.47 0.21,-0.69 0.18,-0.27 0.36,-0.56 0.34,-0.9 -0.02,-0.33 0,-0.64 0.21,-0.92 0.08,-0.1 0.05,-0.24 0.06,-0.36 0,-0.15 -0.02,-0.32 0.03,-0.46 0.1,-0.33 0.05,-0.62 -0.04,-0.95 -0.15,-0.53 -0.18,-1.08 0.2,-1.55 0.52,-0.63 0.82,-1.42 1.41,-1.99 0.03,-0.03 0.06,-0.07 0.09,-0.11 0.5,-0.85 0.69,-1.74 0.37,-2.7 -0.13,-0.39 -0.35,-0.64 -0.77,-0.69 z"
             id="path24"
             style="fill:#ffffff;stroke-width:0px" />
          <path
             class="cls-4"
             d="m 781.54,180.16 c 0.7,-0.15 0.94,-0.53 0.77,-1.24 -0.1,-0.43 -0.02,-0.57 0.39,-0.72 0.73,-0.27 1.32,-0.71 1.6,-1.48 0.04,-0.12 0.06,-0.24 0.16,-0.33 0.21,-0.19 0.27,-0.44 0.25,-0.72 -0.02,-0.22 0.06,-0.42 0.26,-0.5 0.5,-0.19 0.95,-0.51 1.5,-0.6 0.42,-0.07 0.86,-0.12 1.24,-0.34 0.08,-0.05 0.16,-0.09 0.14,-0.21 -0.02,-0.09 -0.1,-0.11 -0.17,-0.13 -0.29,-0.09 -0.58,-0.07 -0.87,-0.06 -0.56,0.03 -1.13,0 -1.65,-0.16 -0.59,-0.19 -1.19,-0.31 -1.8,-0.42 -0.99,-0.18 -1.99,-0.22 -2.99,-0.03 -0.39,0.07 -0.77,0.13 -1.19,0.09 -0.56,-0.06 -1.14,-0.06 -1.71,0.03 -0.97,0.16 -1.95,0.31 -2.94,0.32 -0.26,0 -0.52,0.11 -0.78,0.06 -1,-0.19 -1.95,0.23 -2.94,0.17 -0.06,0 -0.12,0.02 -0.18,0.04 -0.32,0.13 -0.64,0.21 -0.98,0.24 -0.57,0.06 -1.09,0.34 -1.67,0.36 -0.14,0 -0.33,0.03 -0.4,0.19 -0.08,0.21 -0.27,0.24 -0.44,0.3 -0.5,0.17 -1.03,0.15 -1.55,0.21 -0.31,0.04 -0.61,0.1 -0.91,0.17 -0.21,0.05 -0.27,0.17 -0.27,0.37 0,0.32 0.27,0.71 0.62,0.84 0.31,0.12 0.64,0.16 0.96,0.1 0.67,-0.14 1.32,-0.02 1.97,0.1 0.53,0.09 0.87,0.48 0.9,1.02 0.02,0.27 -0.03,0.53 -0.17,0.76 -0.16,0.27 -0.15,0.54 0,0.79 0.15,0.24 0.24,0.5 0.42,0.72 0.25,0.29 0.17,0.45 -0.22,0.52 -0.82,0.14 -1.25,0.64 -1.25,1.48 -0.05,0.35 0.13,0.7 0.09,1.08 -0.04,0.39 0.04,0.77 0.2,1.12 0.1,0.22 0.23,0.44 0.34,0.66 0.16,0.31 0.22,0.35 0.59,0.26 0.34,-0.08 0.6,0.02 0.83,0.27 0.54,0.58 0.84,0.37 1.16,0.02 0.3,-0.32 0.67,-0.6 0.86,-1.02 0.05,-0.11 0.14,-0.22 0.24,-0.28 0.34,-0.21 0.57,-0.5 0.76,-0.85 0.26,-0.47 0.63,-0.76 1.21,-0.78 0.33,-0.02 0.67,-0.06 1,-0.12 0.72,-0.13 1.39,-0.4 1.97,-0.87 0.23,-0.18 0.47,-0.38 0.77,-0.39 0.58,-0.01 1.12,-0.2 1.69,-0.27 0.42,-0.05 0.81,-0.2 1.19,-0.37 0.32,-0.15 0.64,-0.3 0.99,-0.37 z"
             id="path25"
             style="fill:#ffffff;stroke-width:0px" />
          <path
             class="cls-4"
             d="m 819.67,234.94 c -0.05,-0.32 -0.2,-0.62 -0.33,-0.91 -0.1,-0.21 -0.26,-0.23 -0.39,-0.04 -0.22,0.33 -0.46,0.66 -0.63,1.02 -0.33,0.73 -0.79,1.28 -1.63,1.43 -0.2,0.04 -0.45,0.08 -0.55,0.3 -0.16,0.35 -0.42,0.67 -0.35,1.08 0.04,0.23 0.01,0.47 0.08,0.69 0.17,0.57 -0.08,1.04 -0.38,1.47 -0.22,0.31 -0.34,0.61 -0.29,0.94 -0.02,0.46 0.09,0.87 0.18,1.27 0.11,0.48 0.68,0.91 1.09,0.83 0.28,-0.06 0.56,-0.18 0.83,-0.28 0.08,-0.03 0.17,-0.11 0.2,-0.18 0.14,-0.31 0.33,-0.6 0.41,-0.93 0.19,-0.74 0.49,-1.43 0.75,-2.14 0.22,-0.59 0.51,-1.16 0.6,-1.79 0.05,-0.36 0.16,-0.69 0.35,-0.99 0.24,-0.38 0.29,-0.77 0.17,-1.19 -0.05,-0.19 -0.08,-0.39 -0.11,-0.59 z"
             id="path26"
             style="fill:#ffffff;stroke-width:0px" />
          <path
             class="cls-4"
             d="m 788.22,188.77 c 0.19,0.21 0.43,0.34 0.68,0.47 0.22,0.11 0.36,0.32 0.35,0.56 0,0.24 -0.25,0.23 -0.42,0.26 -0.22,0.04 -0.36,0.16 -0.39,0.39 -0.01,0.11 -0.05,0.21 -0.06,0.32 -0.04,0.36 -0.19,0.68 -0.28,1.02 -0.08,0.32 0.09,0.47 0.41,0.38 0.04,-0.01 0.09,-0.03 0.13,-0.06 0.47,-0.33 1.01,-0.34 1.55,-0.36 0.3,-0.01 0.57,-0.12 0.84,-0.24 0.1,-0.04 0.2,-0.11 0.2,-0.23 0,-0.18 0.13,-0.27 0.24,-0.38 0.31,-0.32 0.29,-0.54 -0.13,-0.67 -0.28,-0.09 -0.41,-0.26 -0.46,-0.51 -0.05,-0.24 -0.14,-0.43 -0.35,-0.57 -0.06,-0.04 -0.12,-0.1 -0.15,-0.17 -0.22,-0.47 -0.51,-0.9 -0.46,-1.47 0.04,-0.5 -0.4,-0.88 -0.98,-0.88 -0.3,-0.07 -0.56,0.08 -0.79,0.4 -0.2,0.28 -0.36,0.52 -0.29,0.91 0.06,0.32 0.14,0.58 0.35,0.82 z"
             id="path27"
             style="fill:#ffffff;stroke-width:0px" />
          <path
             class="cls-4"
             d="m 784.19,181.91 c -0.23,0.03 -0.46,0.02 -0.69,0.06 -0.59,0.1 -1.19,0.24 -1.77,0.02 -0.46,-0.17 -0.8,0.01 -1.13,0.3 -0.15,0.13 -0.16,0.26 0,0.38 0.19,0.15 0.3,0.33 0.38,0.56 0.08,0.23 0.23,0.38 0.5,0.41 0.4,0.04 0.8,0.03 1.18,0.19 0.03,0.01 0.06,0 0.12,0 0.05,-0.01 0.13,-0.02 0.19,-0.06 0.55,-0.32 1.16,-0.47 1.77,-0.64 0.19,-0.06 0.32,-0.18 0.44,-0.32 0.11,-0.13 0.13,-0.28 0,-0.41 -0.27,-0.28 -0.54,-0.54 -0.99,-0.49 z"
             id="path28"
             style="fill:#ffffff;stroke-width:0px" />
          <path
             class="cls-4"
             d="m 743.67,211.21 c 0.25,0.26 0.55,0.44 0.86,0.62 0.13,0.08 0.19,0.18 0.22,0.33 0.07,0.32 0.15,0.39 0.43,0.3 0.29,-0.09 0.5,-0.02 0.74,0.12 0.23,0.14 0.48,0.1 0.7,-0.04 0.26,-0.17 0.27,-0.32 0.02,-0.49 -0.15,-0.1 -0.33,-0.17 -0.48,-0.27 -0.31,-0.21 -0.7,-0.29 -0.95,-0.56 -0.42,-0.47 -0.97,-0.7 -1.53,-0.91 -0.35,-0.13 -0.68,-0.29 -1.1,-0.25 -0.31,-0.06 -0.61,0.11 -0.92,0.17 -0.31,0.05 -0.54,0.22 -0.75,0.43 -0.11,0.11 -0.3,0.25 -0.21,0.43 0.11,0.21 0.3,0.02 0.45,0 0.29,-0.04 0.53,-0.27 0.83,-0.25 0.52,0.02 1.03,0.18 1.54,0.28 0.06,0.01 0.11,0.05 0.15,0.1 z"
             id="path29"
             style="fill:#ffffff;stroke-width:0px" />
          <path
             class="cls-4"
             d="m 787.95,188.89 c -0.29,-0.2 -0.99,-0.16 -1.26,0.06 -0.19,0.15 -0.34,0.34 -0.61,0.39 -0.32,0.06 -0.36,0.1 -0.31,0.44 0.04,0.28 0,0.53 -0.17,0.74 -0.14,0.18 -0.1,0.33 0.01,0.5 0.11,0.16 0.22,0.3 0.43,0.27 0.16,0 0.28,-0.05 0.4,-0.13 0.27,-0.19 0.56,-0.32 0.9,-0.34 0.14,0 0.23,-0.08 0.28,-0.2 0.07,-0.17 0.17,-0.33 0.17,-0.52 0,-0.2 0.06,-0.33 0.22,-0.47 0.26,-0.22 0.22,-0.55 -0.06,-0.74 z"
             id="path30"
             style="fill:#ffffff;stroke-width:0px" />
          <path
             class="cls-4"
             d="m 747.22,213.14 c -0.2,0.02 -0.4,0.06 -0.59,0.1 -0.09,0.02 -0.17,0.08 -0.17,0.19 0,0.09 0.08,0.14 0.15,0.15 0.59,0.07 1.18,0.31 1.78,0.19 0.43,-0.09 0.87,-0.16 1.3,-0.25 0.14,-0.03 0.28,-0.05 0.31,-0.22 0.03,-0.18 -0.1,-0.26 -0.23,-0.36 -0.35,-0.25 -0.81,-0.26 -1.16,-0.54 -0.07,-0.05 -0.21,-0.02 -0.32,-0.02 -0.14,0 -0.28,0.01 -0.33,0.02 -0.15,0 -0.21,-0.03 -0.27,-0.02 -0.17,0.03 -0.39,-0.15 -0.51,0.05 -0.12,0.19 0.12,0.28 0.19,0.43 0.08,0.17 0.04,0.26 -0.16,0.28 z"
             id="path31"
             style="fill:#ffffff;stroke-width:0px" />
        </g>
      </g>
      <path
         class="cls-5"
         d="m 827.85,208.72 c 0,0 0,0 0,0 -0.11,-0.61 -0.23,-1.22 -0.37,-1.82 -0.02,-0.1 -0.04,-0.21 -0.07,-0.31 -0.13,-0.6 -0.28,-1.19 -0.43,-1.78 -0.02,-0.07 -0.04,-0.15 -0.06,-0.22 -0.15,-0.56 -0.31,-1.12 -0.48,-1.67 -0.02,-0.06 -0.04,-0.12 -0.05,-0.18 -0.18,-0.59 -0.37,-1.17 -0.57,-1.75 -0.03,-0.09 -0.06,-0.18 -0.09,-0.27 -0.41,-1.18 -0.87,-2.33 -1.37,-3.47 -0.03,-0.07 -0.06,-0.14 -0.09,-0.22 -0.25,-0.57 -0.52,-1.14 -0.79,-1.71 0,-0.01 -0.01,-0.02 -0.02,-0.03 -0.28,-0.57 -0.57,-1.13 -0.87,-1.69 -0.02,-0.03 -0.03,-0.06 -0.04,-0.09 -0.3,-0.56 -0.61,-1.12 -0.93,-1.66 -0.02,-0.03 -0.04,-0.07 -0.06,-0.1 -0.65,-1.11 -1.34,-2.19 -2.07,-3.24 -0.02,-0.03 -0.04,-0.05 -0.05,-0.08 -1.87,-2.7 -3.99,-5.2 -6.33,-7.49 v 0 c 8.98,12.07 16.9,46.76 -12.43,67.9 -25.11,18.1 -56.68,5.44 -64.16,1.52 9.49,11.8 24.05,19.36 40.37,19.36 28.6,0 51.78,-23.18 51.78,-51.78 0,-3.15 -0.28,-6.23 -0.82,-9.22 z"
         id="path32"
         style="opacity:0.21;mix-blend-mode:multiply;fill:#343433;stroke-width:0px" />
    </g>
  </g>
</svg>
